<?xml version="1.0" standalone="no"?>
<!DOCTYPE svg PUBLIC "-//W3C//DTD SVG 1.1//EN" "http://www.w3.org/Graphics/SVG/1.1/DTD/svg11.dtd" >
<svg>
<metadata>
Created by FontForge 20090914 at Fri Feb 24 06:14:09 2012
 By root
Copyright (c) 2000, 2006 Nick Curtis. All Rights Reserved. Distributed under non-exclusive license by 1001 Free Fonts.
</metadata>
<defs>
<font id="IndubitablyNF" horiz-adv-x="1004" >
  <font-face 
    font-family="Indubitably NF"
    font-weight="400"
    font-stretch="normal"
    units-per-em="1000"
    panose-1="2 10 9 5 6 3 5 2 4 4"
    ascent="720"
    descent="-280"
    x-height="478"
    cap-height="666"
    bbox="-39 -251 1360 901"
    underline-thickness="50"
    underline-position="-30"
    unicode-range="U+0020-U+2212"
  />
<missing-glyph horiz-adv-x="200" 
 />
    <glyph glyph-name=".notdef" horiz-adv-x="200" 
 />
    <glyph glyph-name="exclam" unicode="!" horiz-adv-x="213" 
d="M201 83q0 -40 -28 -66.5t-67 -26.5t-66.5 27t-27.5 66q0 19 7.5 36.5t20 30.5t29.5 20.5t37 7.5q19 0 36.5 -7.5t30.5 -20.5t20.5 -30.5t7.5 -36.5zM197 567q0 -34 -8 -67.5t-19 -65.5q-19 -51 -34.5 -103.5t-26.5 -105.5h-8q-11 53 -26.5 105t-33.5 103q-12 32 -20 66
t-8 68q0 20 6 41t17.5 38.5t28.5 28.5t40 11t40 -11t28.5 -28.5t17.5 -38.5t6 -41z" />
    <glyph glyph-name="quotedbl" unicode="&#x22;" horiz-adv-x="397" 
d="M195 605q0 -37 -14.5 -68.5t-38.5 -55.5t-56 -39.5t-67 -19.5l3 18q32 20 59 48.5t37 66.5q-5 -1 -8.5 -1.5t-8.5 -0.5q-38 0 -63.5 27.5t-25.5 64.5q0 19 6.5 35.5t18.5 29.5t28.5 20.5t35.5 7.5q27 0 45.5 -12.5t29 -31.5t15 -43t4.5 -46zM385 605q0 -37 -14.5 -68.5
t-38.5 -55.5t-56 -39.5t-67 -19.5l3 18q32 20 59 48.5t37 66.5q-5 -1 -8.5 -1.5t-8.5 -0.5q-38 0 -63.5 27.5t-25.5 64.5q0 19 6.5 35.5t18.5 29.5t28.5 20.5t35.5 7.5q27 0 45.5 -12.5t29 -31.5t15 -43t4.5 -46z" />
    <glyph glyph-name="numbersign" unicode="#" horiz-adv-x="477" 
d="M121 0h-70l70 265h-109l24 67h101l14 56h-108l26 67h99l54 213h70l-54 -213h53l54 213h70l-53 -213h103l-16 -67h-104l-15 -56h113l-15 -67h-113l-71 -265h-70l70 265h-53zM207 332h53l14 56h-52z" />
    <glyph glyph-name="dollar" unicode="$" horiz-adv-x="690" 
d="M678 216q0 -56 -24 -96.5t-62.5 -67t-87 -39t-97.5 -12.5q-2 0 -4.5 0.5t-4.5 0.5h-4v-122h-109v136q-38 8 -74.5 21t-70.5 32l-106 -64v309q26 -56 68.5 -95t95 -63t111 -35t116.5 -11q9 0 24 2.5t30 8t25.5 14t10.5 20.5q0 11 -4 17.5t-13 14.5q-16 13 -41.5 15
t-45.5 4q-27 3 -54 6.5t-54 7.5q-54 7 -106.5 19t-93.5 37t-66 66.5t-25 108.5q0 51 20 91t53 67t77 41t92 14h31v86h109v-101q26 -6 52 -15.5t49 -24.5l106 51v-253q-71 81 -165 116.5t-200 35.5q-11 0 -25 -2.5t-26.5 -7.5t-21.5 -14.5t-9 -22.5t13.5 -25.5t25.5 -14.5
q52 -10 104.5 -16.5t105.5 -14.5q51 -8 100.5 -20.5t88 -37.5t62.5 -65t24 -102z" />
    <glyph glyph-name="percent" unicode="%" horiz-adv-x="745" 
d="M252 0h-79l317 667h80zM362 508q0 -38 -15 -68t-39.5 -50.5t-56 -31t-64.5 -10.5t-64.5 11t-56 31.5t-39.5 50t-15 67.5t15 68t39.5 50.5t56 31.5t64.5 11t64.5 -11t56 -31.5t39.5 -50.5t15 -68zM248 508q0 18 -3.5 36.5t-11 33.5t-19 24t-27.5 9t-27.5 -9t-19 -24
t-11 -33.5t-3.5 -36.5q0 -21 3.5 -39.5t11 -32.5t19 -22.5t27.5 -8.5t27.5 8.5t19 22.5t11 32.5t3.5 39.5zM733 157q0 -38 -15 -68t-39.5 -50.5t-56 -31t-64.5 -10.5t-64.5 11t-56 31.5t-39.5 50t-15 67.5t15 68t39.5 50.5t56 31.5t64.5 11t64.5 -11t56 -31.5t39.5 -50.5
t15 -68zM619 157q0 18 -3.5 36.5t-11 33.5t-19 24t-27.5 9t-27.5 -9t-19 -24t-11 -33.5t-3.5 -36.5q0 -21 3.5 -39.5t11 -32.5t19 -22.5t27.5 -8.5t27.5 8.5t19 22.5t11 32.5t3.5 39.5z" />
    <glyph glyph-name="ampersand" unicode="&#x26;" horiz-adv-x="923" 
d="M911 145q0 -32 -11.5 -62t-31.5 -53t-48 -37t-62 -14q-42 0 -87 12.5t-78 38.5q-27 -17 -59 -27.5t-66 -16.5t-68.5 -8t-65.5 -2q-54 0 -111 12t-104 39.5t-77 71.5t-30 108q0 49 24 87.5t61.5 66.5t82.5 45.5t87 24.5q-10 24 -14.5 53.5t-4.5 55.5q0 36 16 65t42 49.5
t58.5 32t65.5 11.5q34 0 65.5 -11t55 -31.5t37.5 -50t14 -65.5q0 -50 -30 -87.5t-75 -55.5q10 -18 27 -38t36 -39.5t38.5 -37t35.5 -30.5l31 81l-79 119h325l-126 -117q-11 -39 -26 -76.5l-31 -75.5q15 -9 36 -20t38 -11q14 0 24 9t16.5 22t9.5 28t3 26q0 25 -8 44
q35 -23 49.5 -59t14.5 -77zM479 118l-89.5 107.5t-82.5 112.5q-23 -12 -35 -33.5t-12 -47.5q0 -29 12 -57t32 -51t47 -37t56 -14q19 0 38 4t34 16zM492 544q0 20 -12.5 36t-33.5 16t-33 -16.5t-12 -35.5q0 -25 13 -43l27 -37q20 14 35.5 34t15.5 46z" />
    <glyph glyph-name="quotesingle" unicode="'" horiz-adv-x="207" 
d="M195 605q0 -37 -14.5 -68.5t-38.5 -55.5t-56 -39.5t-67 -19.5l3 18q32 20 59 48.5t37 66.5q-5 -1 -8.5 -1.5t-8.5 -0.5q-38 0 -63.5 27.5t-25.5 64.5q0 19 6.5 35.5t18.5 29.5t28.5 20.5t35.5 7.5q27 0 45.5 -12.5t29 -31.5t15 -43t4.5 -46z" />
    <glyph glyph-name="parenleft" unicode="(" horiz-adv-x="458" 
d="M446 -137q-82 9 -160 42t-139 86.5t-98 126t-37 161.5q0 88 37 161t98 126.5t139 86.5t160 41v-16q-55 -29 -97.5 -72t-72 -95.5t-44.5 -111.5t-15 -120t15 -120t44 -111.5t71.5 -95.5t98.5 -71v-18v0z" />
    <glyph glyph-name="parenright" unicode=")" horiz-adv-x="458" 
d="M12 -120q55 29 97.5 72t72 95.5t44.5 111.5t15 120t-15 120t-44.5 111.5t-72 95.5t-97.5 72v16q82 -8 160 -41t139 -86.5t98 -126.5t37 -161q0 -89 -37 -161.5t-98 -126t-139 -86t-160 -41.5v-1v17z" />
    <glyph glyph-name="asterisk" unicode="*" horiz-adv-x="384" 
d="M283 463l21 -124l-112 58l-111 -58l20 124l-89 88l124 19l56 112l56 -112l124 -19z" />
    <glyph glyph-name="comma" unicode="," horiz-adv-x="231" 
d="M219 42q0 -43 -16 -79.5t-43 -64.5t-63 -45.5t-77 -22.5l3 21q36 23 67 54.5t42 75.5q-5 -2 -9.5 -2h-9.5q-21 0 -39.5 8.5t-32 22.5t-21.5 33t-8 40t7.5 40t21 34t32 23.5t40.5 8.5q31 0 51.5 -13.5t32.5 -34.5t17 -47.5t5 -51.5z" />
    <glyph glyph-name="hyphen" unicode="-" horiz-adv-x="321" 
d="M12 153v159h297v-159h-297z" />
    <glyph glyph-name="period" unicode="." horiz-adv-x="213" 
d="M201 83q0 -40 -28 -66.5t-67 -26.5t-66.5 27t-27.5 66q0 19 7.5 36.5t20 30.5t29.5 20.5t37 7.5q19 0 36.5 -7.5t30.5 -20.5t20.5 -30.5t7.5 -36.5z" />
    <glyph glyph-name="slash" unicode="/" horiz-adv-x="476" 
d="M91 -103h-79l372 801h80z" />
    <glyph glyph-name="zero" unicode="0" horiz-adv-x="805" 
d="M793 331q0 -86 -33 -152.5t-88 -112t-125 -69.5t-144 -24t-144.5 24.5t-125.5 70.5t-88 112.5t-33 150.5q0 85 33 151.5t88 112.5t125.5 70.5t144.5 24.5t144.5 -24t125 -70t87.5 -113t33 -152zM538 330q0 42 -8 83t-24.5 73.5t-42 53t-60.5 20.5t-60.5 -20.5t-42.5 -53
t-25 -73.5t-8 -83q0 -46 8 -87.5t25 -73t42.5 -50.5t60.5 -19q36 0 61.5 18.5t42 50t24 73.5t7.5 88z" />
    <glyph glyph-name="one" unicode="1" horiz-adv-x="618" 
d="M12 0l196 156v369l-196 142h419v-516l175 -151h-594z" />
    <glyph glyph-name="two" unicode="2" horiz-adv-x="745" 
d="M733 486q0 -31 -13.5 -56t-34.5 -45t-46.5 -35.5t-50.5 -27.5l-184.5 -91l-106.5 -53.5t-54.5 -29.5l-29.5 -18h364l144 188v-318h-709q2 11 10.5 26.5l13.5 24.5q14 24 33 49.5t40.5 49.5t44.5 45.5t46 38.5q51 37 104 70l105 68q12 8 23.5 20.5t20.5 27t14 30.5t5 31
q0 30 -9.5 49.5t-26.5 31t-39.5 16t-48.5 4.5q-23 0 -45 -7.5t-39.5 -21t-28.5 -33t-11 -44.5q0 -31 5.5 -62.5t29.5 -53.5q-2 -6 -11 -9.5t-20 -5.5t-21.5 -2.5t-15.5 -0.5q-34 0 -64.5 8.5t-53 26.5t-36 45t-13.5 64q0 25 8.5 46.5t23 39t33.5 32t39 26.5
q57 33 120.5 46.5t129.5 13.5t130 -13.5t121 -46.5q20 -12 39 -26.5t33.5 -32t23 -39t8.5 -46.5z" />
    <glyph glyph-name="three" unicode="3" horiz-adv-x="732" 
d="M720 180q0 -57 -35.5 -95.5t-88.5 -62t-115 -34t-115 -10.5q-27 0 -64 3.5t-76.5 11.5t-77.5 22t-68.5 34.5t-49 48.5t-18.5 65q0 30 15 52t38 36t50.5 20.5t53.5 6.5q27 0 54 -6q-12 -14 -15.5 -36t-3.5 -40q0 -29 12 -48t31.5 -30.5t43.5 -16t48 -4.5q22 0 46.5 4.5
t44.5 15t33 28.5t13 46q0 38 -18 58t-45.5 29t-60.5 10.5t-62 1.5v99q31 0 61.5 0.5t55 8.5t39.5 27t15 58q0 25 -11 42.5t-28 29t-38.5 17t-43.5 5.5q-25 0 -47.5 -5t-40 -16.5t-28 -31t-10.5 -47.5q0 -33 18 -57q-13 -3 -25.5 -4t-25.5 -1q-22 0 -47.5 5.5t-47.5 17
t-36.5 30.5t-14.5 46q0 35 15.5 61.5t41.5 46t60 33t71 21t73.5 11t68.5 3.5q45 0 102 -10t107.5 -34t85 -63.5t34.5 -98.5q0 -31 -15 -55.5t-38 -42.5t-50.5 -30.5t-53.5 -19.5q28 -7 60.5 -19t59.5 -31t45 -45.5t18 -60.5z" />
    <glyph glyph-name="four" unicode="4" horiz-adv-x="831" 
d="M220 0l201 154v32h-409v130l423 349h208v-367h163l-55 -112h-108v-34l176 -152h-599zM421 511l-244 -213h244v213z" />
    <glyph glyph-name="five" unicode="5" horiz-adv-x="739" 
d="M727 225q0 -41 -17 -75.5t-45.5 -62.5t-65.5 -49.5t-77 -35.5t-80 -21.5t-74 -7.5q-55 0 -117.5 8.5t-115.5 31t-88 61.5t-35 101q0 29 11.5 49.5t31 33.5t43.5 19t50 6q17 0 33 -2.5t32 -7.5q-15 -27 -15 -58q0 -32 11.5 -54t31.5 -35.5t45.5 -19.5t54.5 -6q27 0 52 10
t44 27.5t30 41.5t11 52q0 65 -37 97.5t-100 32.5q-24 0 -44 -4.5t-37.5 -12.5t-35 -18.5t-36.5 -23.5l-123 72l40 293h576l-68 -137h-401l-24 -110q47 31 101.5 44.5t110.5 13.5q55 0 113.5 -15.5t105.5 -47t77.5 -79t30.5 -111.5z" />
    <glyph glyph-name="six" unicode="6" horiz-adv-x="788" 
d="M776 204q0 -41 -18 -74t-48 -58.5t-68.5 -44.5t-79 -31t-81 -17.5t-73.5 -5.5q-83 0 -155.5 23.5t-126 67.5t-84 107.5t-30.5 144.5t34.5 149.5t91.5 118.5t130.5 78t150.5 28q23 0 54 -3.5t64.5 -11.5t66 -20.5t58 -30.5t41.5 -42t16 -54q0 -22 -10 -36t-25.5 -22
t-34.5 -11t-36 -3q-33 0 -63 7t-62 12q11 17 11 37q0 18 -9.5 31t-23.5 22t-31.5 13t-32.5 4q-38 0 -64.5 -17t-43.5 -43.5t-25 -59.5t-8 -66v-23.5t2 -23.5q42 40 96.5 58.5t111.5 18.5q48 0 101.5 -13.5t98.5 -41.5t75 -69.5t30 -97.5zM527 204q0 26 -11 47.5t-29 36.5
t-41.5 23.5t-47.5 8.5q-25 0 -48.5 -8.5t-41.5 -23.5t-29 -36.5t-11 -47.5t11 -47t29.5 -36t42 -23.5t47.5 -8.5t47.5 8.5t41.5 23.5t29 36t11 47z" />
    <glyph glyph-name="seven" unicode="7" horiz-adv-x="651" 
d="M639 611q-42 -54 -77 -112t-60.5 -120t-39.5 -127.5t-14 -134.5q0 -29 2.5 -58.5t8.5 -58.5h-259q7 79 30 150.5t57.5 137t80 125.5t99.5 117h-282l-173 -193v331h627v-57v0z" />
    <glyph glyph-name="eight" unicode="8" horiz-adv-x="783" 
d="M771 208q0 -45 -19 -80t-50.5 -61t-72.5 -44t-84.5 -29t-86 -16t-77.5 -5q-63 0 -128.5 8t-119 27.5t-87.5 53t-34 83.5q0 25 9 45t24.5 35t35.5 25.5t42 18.5q-49 29 -78 77t-29 106q0 47 17 83t46 62.5t67 44.5t79 28.5t83 15t80 4.5q28 0 63.5 -3.5t72 -11.5t71 -20.5
t61 -31.5t43 -44t16.5 -57q0 -24 -9 -43t-23.5 -33.5t-33 -26t-38.5 -20.5q31 -11 60 -29t51 -42t35.5 -54.5t13.5 -65.5zM552 148q0 17 -12 27.5t-31 17.5t-42 10.5t-45.5 5.5t-42 2.5t-30.5 1.5q-38 3 -80 6t-78 16q-5 -10 -9 -22t-4 -23q0 -30 18 -52t47.5 -36t66 -20.5
t73.5 -6.5q33 0 63.5 5t54 14t37.5 22.5t14 31.5zM545 492q0 20 -15.5 36.5t-42.5 28.5t-64 18.5t-81 6.5q-28 0 -53.5 -4.5t-45 -13.5t-31 -23.5t-11.5 -33.5q0 -15 7 -26t18.5 -18t25 -11t25.5 -6q30 -4 57.5 -5.5l54.5 -3t54.5 -3.5t57.5 -7q19 11 31.5 28.5t12.5 36.5z
" />
    <glyph glyph-name="nine" unicode="9" horiz-adv-x="788" 
d="M776 346q0 -81 -34.5 -149.5t-91.5 -118t-130.5 -77.5t-150.5 -28q-23 0 -54 3.5t-64.5 11t-66 20t-58 30t-41.5 41t-16 54.5q0 22 10 37t26 24t37 13t43 4q34 0 65.5 -7t49.5 -17q-11 -17 -11 -37q0 -18 9.5 -31t23.5 -22t31.5 -13t32.5 -4q40 0 67 18t43 46t23 62.5
t7 68.5q0 10 -1 19t-1 19q-42 -40 -96 -58.5t-111 -18.5q-48 0 -101.5 13.5t-98.5 41.5t-75 69.5t-30 97.5q0 62 35.5 106t89.5 72t118.5 41t123.5 13q75 0 146.5 -23.5t127 -67.5t89.5 -108t34 -145zM520 458q0 26 -11 47t-29.5 36t-42 23.5t-47.5 8.5t-47.5 -8.5
t-41.5 -23.5t-29 -36t-11 -47t11 -47.5t29 -36.5t41.5 -23.5t47.5 -8.5q25 0 48.5 8.5t41.5 23.5t29 36.5t11 47.5z" />
    <glyph glyph-name="colon" unicode=":" horiz-adv-x="213" 
d="M201 83q0 -40 -28 -66.5t-67 -26.5t-66.5 27t-27.5 66q0 19 7.5 36.5t20 30.5t29.5 20.5t37 7.5q19 0 36.5 -7.5t30.5 -20.5t20.5 -30.5t7.5 -36.5zM201 323q0 -20 -7.5 -37t-20.5 -30t-30.5 -20t-36.5 -7q-20 0 -37 7.5t-29.5 20t-20 29.5t-7.5 37q0 19 7 36.5t20 30.5
t30 20.5t37 7.5q19 0 36.5 -7.5t30.5 -20.5t20.5 -30.5t7.5 -36.5z" />
    <glyph glyph-name="semicolon" unicode=";" horiz-adv-x="237" 
d="M225 42q0 -43 -16 -79.5t-43 -64.5t-63 -45.5t-77 -22.5l3 21q36 23 67 54.5t42 75.5q-5 -2 -9.5 -2h-9.5q-21 0 -39.5 8.5t-32 22.5t-21.5 33t-8 40t7.5 40t21 34t32 23.5t40.5 8.5q31 0 51.5 -13.5t32.5 -34.5t17 -47.5t5 -51.5zM201 323q0 -20 -7.5 -37t-20.5 -30
t-30.5 -20t-36.5 -7q-20 0 -37 7.5t-29.5 20t-20 29.5t-7.5 37q0 19 7 36.5t20 30.5t30 20.5t37 7.5q19 0 36.5 -7.5t30.5 -20.5t20.5 -30.5t7.5 -36.5z" />
    <glyph glyph-name="greater" unicode="&#x3e;" horiz-adv-x="424" 
d="M12 464v98l400 -175v-82l-400 -175v99l269 117z" />
    <glyph glyph-name="question" unicode="?" horiz-adv-x="503" 
d="M343 83q0 -40 -28 -66.5t-67 -26.5t-67 26.5t-28 66.5q0 19 7.5 36.5t20.5 30.5t30 20.5t37 7.5q19 0 36.5 -7.5t30.5 -20.5t20.5 -30.5t7.5 -36.5zM491 485q0 -54 -33 -93q-17 -21 -36.5 -32.5t-38.5 -18.5l-36.5 -13t-31 -16.5t-22 -28.5t-9.5 -49h-32v29
q0 39 6.5 77.5t26.5 72.5q9 16 16.5 35.5t7.5 38.5t-3 36.5t-11.5 30.5t-22.5 20.5t-36 7.5q-18 0 -31.5 -9t-22.5 -23t-13 -30.5t-4 -32.5q0 -22 5 -45t19 -40q-15 -5 -30.5 -7.5t-31.5 -2.5q-51 0 -83 28t-32 80q0 48 20.5 83t53.5 57.5t75 33.5t85 11q41 0 84.5 -14
t79 -40t58.5 -63t23 -83z" />
    <glyph glyph-name="at" unicode="@" horiz-adv-x="719" 
d="M707 366q0 -43 -14.5 -81t-41 -67t-63 -46t-80.5 -17h-138l10 37q-25 -23 -56 -37.5t-66 -14.5q-30 0 -52.5 11.5t-37.5 30.5t-23 44t-8 52q0 39 16 80.5t44 76.5t64.5 57.5t78.5 22.5q38 0 66 -15.5t45 -49.5l10 39l130 11l-83 -272l34 -36q45 26 72.5 71t27.5 98
q0 57 -21 105.5t-57.5 83.5t-86 54.5t-105.5 19.5q-62 0 -116 -23t-94.5 -63.5t-63.5 -94.5t-23 -116t23 -116t63.5 -94.5t94.5 -64t116 -23.5q63 0 119 25t98 70l49 -41q-51 -57 -120.5 -86.5t-145.5 -29.5q-75 0 -140.5 28.5t-114 77t-77 114t-28.5 140.5t28.5 140.5
t77 114t114 77t140.5 28.5q71 0 132 -23t106 -65t71 -101t26 -132zM419 361q0 10 -1.5 23t-6 24.5t-12.5 19.5t-22 8q-23 0 -40.5 -17t-29.5 -40.5t-18.5 -49.5t-6.5 -44q0 -10 2 -21.5t6.5 -21.5t13 -17t20.5 -7q20 0 37.5 16t30 38.5t20 47t7.5 41.5z" />
    <glyph glyph-name="A" unicode="A" 
d="M439 0l146 133l-22 48h-258l-18 -43l130 -138h-405l123 157l192 393l-109 116h528l-109 -116l180 -380l175 -170h-553zM431 472l-79 -183h162z" />
    <glyph glyph-name="B" unicode="B" horiz-adv-x="947" 
d="M935 167q0 -41 -19.5 -72.5t-50 -52.5t-68 -31.5t-73.5 -10.5h-712l160 147v372l-160 147h677q35 0 72.5 -11t68 -32.5t50.5 -52.5t20 -71q0 -42 -22 -72t-55.5 -48.5t-73.5 -27t-75 -8.5q38 0 83.5 -10.5t85 -32t66 -54.5t26.5 -79zM677 200q0 13 -3.5 26.5t-11 25
t-18.5 19t-26 7.5h-218v-147h218q29 0 44 21.5t15 47.5zM667 477q0 13 -3.5 26t-11 23.5t-18.5 17t-26 6.5h-208v-146h208q14 0 25 6.5t18.5 17t11.5 23.5t4 26z" />
    <glyph glyph-name="C" unicode="C" horiz-adv-x="843" 
d="M805 358q-13 47 -43.5 85t-71.5 64.5t-89 40.5t-96 14q-44 0 -84.5 -13t-71.5 -40.5t-49.5 -70t-18.5 -102.5q0 -58 22.5 -102.5t59 -74.5t83.5 -45.5t96 -15.5q45 0 87.5 13t77 40t58 68t28.5 97q21 -17 29.5 -41t8.5 -50q0 -68 -33.5 -116.5t-87.5 -80t-122.5 -46.5
t-137.5 -15q-51 0 -103.5 11t-101 32.5t-91 52.5t-74 71t-50 88.5t-18.5 105.5q0 78 37.5 144t99 114.5t139 76t158.5 27.5q73 0 143 -21.5t130 -64.5l86 72v-318v0z" />
    <glyph glyph-name="D" unicode="D" horiz-adv-x="982" 
d="M970 333q0 -72 -28.5 -133.5t-77 -105.5t-112.5 -69t-134 -25h-606l160 147v372l-160 147h611q72 0 135 -24.5t110.5 -68.5t74.5 -105t27 -135zM705 341q0 34 -10 70.5t-29.5 67.5t-49 51t-68.5 20h-148v-419h183q39 0 63 21.5t37 53.5t17.5 68.5t4.5 66.5z" />
    <glyph glyph-name="E" unicode="E" horiz-adv-x="912" 
d="M12 0l160 147v372l-160 147h873v-289l-157 173h-327v-146h181l117 83v-299l-117 83h-181v-140h317l182 186v-317h-888z" />
    <glyph glyph-name="F" unicode="F" horiz-adv-x="897" 
d="M728 550h-328v-146h182l117 83v-299l-117 83h-182v-112l173 -159h-561l160 147v372l-160 147h873v-289z" />
    <glyph glyph-name="G" unicode="G" horiz-adv-x="995" 
d="M819 178v-212l-99 76q-63 -42 -136 -58.5t-148 -16.5q-77 0 -152.5 23t-136 67.5t-98 110t-37.5 150.5q0 82 39.5 150.5t101.5 118t139.5 76.5t153.5 27t149.5 -22.5t134.5 -68.5l77 67v-292q-23 42 -59.5 77t-80 60.5t-91.5 39.5t-94 14q-42 0 -79.5 -13t-66 -41.5
t-45 -73.5t-16.5 -108q0 -47 16 -90.5t44 -76.5t64.5 -53t78.5 -20q31 0 62.5 12t63.5 39v39l-180 160h559z" />
    <glyph glyph-name="H" unicode="H" horiz-adv-x="1071" 
d="M536 0l128 147v117h-257v-117l129 -147h-524l160 147v372l-160 147h524l-129 -147v-90h257v90l-128 147h523l-160 -147v-372l160 -147h-523z" />
    <glyph glyph-name="I" unicode="I" horiz-adv-x="565" 
d="M12 0l160 147v372l-160 147h541l-160 -147v-372l160 -147h-541z" />
    <glyph glyph-name="J" unicode="J" horiz-adv-x="740" 
d="M569 517v-334q0 -49 -23.5 -86.5t-61.5 -65.5q-45 -34 -96.5 -49t-107.5 -15q-51 0 -99.5 12t-86 37.5t-60 66.5t-22.5 100q0 29 4 57.5t17 54.5l158 33v-144q0 -31 20.5 -54.5t52.5 -23.5t52.5 23.5t20.5 54.5v330l-161 152h552z" />
    <glyph glyph-name="K" unicode="K" horiz-adv-x="1062" 
d="M545 0l133 146l-97 158l-175 -123v-34l129 -147h-523l160 147v372l-160 147h523l-129 -147v-181l260 197l-111 131h488l-300 -237l154 -273l153 -156h-505z" />
    <glyph glyph-name="L" unicode="L" horiz-adv-x="887" 
d="M12 0l160 147v372l-160 147h541l-160 -147v-388h282l200 227v-358h-863z" />
    <glyph glyph-name="M" unicode="M" horiz-adv-x="1153" 
d="M608 0l149 153v440l-172 -593h-117l-167 561v-408l153 -153h-440l161 153v359l-163 154h458l88 -302l87 302h496l-159 -154v-359l159 -153h-533z" />
    <glyph glyph-name="N" unicode="N" horiz-adv-x="993" 
d="M818 512v-512h-233l-284 382v-229l167 -153h-456l163 153v359l-159 154h394l280 -360v206l-167 154h458z" />
    <glyph glyph-name="O" unicode="O" horiz-adv-x="872" 
d="M860 318q0 -85 -37.5 -150.5t-98 -110t-136.5 -67.5t-152 -23q-77 0 -152.5 23t-136 68t-98 110.5t-37.5 149.5t37 152.5t97 117t136 75.5t154 27t154 -26.5t136 -75.5t97 -117.5t37 -152.5zM595 329q0 35 -8.5 77.5t-27.5 79t-49 61.5t-73 25q-44 0 -74 -25t-49 -61.5
t-27.5 -79t-8.5 -77.5q0 -36 8.5 -76.5t27 -75.5t49 -58t74.5 -23t74 23t49 58t27 75.5t8 76.5z" />
    <glyph glyph-name="P" unicode="P" horiz-adv-x="939" 
d="M927 434q0 -47 -19 -84.5t-54 -66.5q-38 -32 -82.5 -46.5t-93.5 -14.5h-270v-68l158 -154h-554l165 152v358l-165 157h650q44 0 91 -19t85.5 -51t63.5 -74.5t25 -88.5zM680 441q0 14 -3.5 30.5t-11.5 30.5t-20 23.5t-28 9.5h-209v-189h199q19 0 33 8.5t23 22t13 30.5
t4 34z" />
    <glyph glyph-name="Q" unicode="Q" horiz-adv-x="873" 
d="M861 318q0 -65 -24 -120t-65 -98t-95 -72.5t-114 -44.5q9 -24 26 -41t39.5 -27.5t47.5 -15.5t49 -5q5 0 9 0.5t9 0.5v-79h-314v151q-75 1 -149.5 25t-134 68.5t-96.5 109.5t-37 148q0 84 37 152.5t97.5 117.5t136.5 75.5t154 26.5t154 -26.5t136 -75.5t97 -117.5
t37 -152.5zM454 134q0 10 -2.5 24t-8 26.5t-15 21t-22.5 8.5q-14 0 -23 -8.5t-14.5 -21t-8 -28.5t-2.5 -31q37 -29 82 -29l8 1q6 18 6 37zM596 329q0 35 -8.5 77.5t-27.5 79.5t-49 62t-73 25q-44 0 -74 -25t-49 -62t-27.5 -79.5t-8.5 -77.5q0 -38 7.5 -76t26.5 -72
q3 19 10 39.5t19.5 37.5t29.5 27.5t40 10.5q27 0 48 -16t36.5 -39.5t25 -51t11.5 -49.5q35 37 49 88t14 101z" />
    <glyph glyph-name="R" unicode="R" horiz-adv-x="1010" 
d="M680 0l-66 200q-3 9 -10.5 19.5t-17 19t-20.5 14t-21 5.5h-144v-102l165 -156h-551l157 150v363l-160 154h676q35 0 75 -13.5t74 -37.5t56.5 -57t22.5 -72q0 -43 -18 -75t-47.5 -53t-66.5 -31t-75 -10q37 -12 67.5 -33.5t53 -50.5t37 -63.5t18.5 -72.5l113 -98h-318z
M672 462q0 12 -3.5 25t-10.5 24t-17.5 18t-24.5 7h-215v-148h215q14 0 24.5 7t17.5 18t10.5 24t3.5 25z" />
    <glyph glyph-name="S" unicode="S" horiz-adv-x="761" 
d="M749 202q0 -62 -27 -106t-69.5 -72.5t-96 -42t-107.5 -13.5q-35 0 -74 5t-78 14.5t-76 23.5t-68 31l-118 -72v342q28 -62 76 -104.5t106.5 -69.5t123.5 -39t128 -12q11 0 28 3t33 9.5t27.5 16.5t11.5 24q0 16 -10 25.5t-24.5 14.5t-30 6.5t-25.5 3.5q-46 7 -98.5 12
t-104.5 14t-99.5 25t-84 44.5t-58.5 71.5t-22 107q0 57 22 101t59 74.5t85.5 46t101.5 15.5q67 0 138 -12.5t129 -48.5l117 56v-281q-81 91 -183 130t-222 39q-11 0 -26.5 -2.5t-29 -8.5t-23 -16t-9.5 -25q0 -22 14 -32.5t27 -12.5q57 -11 115.5 -18.5l116.5 -15.5l49 -7
q51 -8 97.5 -25t82 -46.5t56 -72t20.5 -100.5z" />
    <glyph glyph-name="T" unicode="T" horiz-adv-x="809" 
d="M628 551h-111v-397l167 -154h-558l167 154v397h-111l-170 -206l16 322h753l16 -322z" />
    <glyph glyph-name="U" unicode="U" horiz-adv-x="1029" 
d="M852 510v-331q0 -52 -23 -90.5t-66 -64.5q-54 -34 -120.5 -45t-128.5 -11q-65 0 -126 16t-114 54q-45 32 -72.5 73.5t-27.5 97.5v304l-162 154q21 1 42 1h42h253q51 0 101.5 -0.5t101.5 -0.5l-146 -150v-304q0 -30 15.5 -51.5t38.5 -36t51 -21t54 -6.5t54.5 6.5t52.5 20
t39.5 35.5t15.5 53v303l-147 151q42 0 82.5 0.5t81.5 0.5h205h34t34 -1z" />
    <glyph glyph-name="V" unicode="V" horiz-adv-x="1007" 
d="M870 551l-190 -446l108 -105h-495l99 105l-147 272q-11 20 -18.5 36.5l-15.5 32.5t-17 32t-22 35l-12.5 12l-28 27l-36 35l-37 35.5l-30.5 29l-16 15.5h554l-151 -144l174 -296l131 296l-140 144h415z" />
    <glyph glyph-name="W" unicode="W" horiz-adv-x="1316" 
d="M1155 513l-154 -389l104 -124h-436l102 132l-111 279l-101 -287l88 -124h-437l95 124l-170 412l-123 131h435l-97 -131l116 -258l95 258l-95 131h450l-106 -111l118 -251l100 251l-86 111h362z" />
    <glyph glyph-name="X" unicode="X" horiz-adv-x="1015" 
d="M491 0l95 101l-111 118l-118 -118l116 -101h-442q32 26 68 52t65 54q53 49 104.5 104.5l102.5 107.5l-101.5 110t-104.5 108q-35 35 -75 67l-78 64q16 1 31.5 1h32.5h308q33 0 66 -0.5t66 -0.5l-87 -111l93 -90l105 105l-95 96h434l-36.5 -27.5l-39.5 -29.5l-39 -30
t-34 -29q-20 -18 -32 -31.5l-30 -32.5l-124 -128l112.5 -118.5t114.5 -116.5q34 -32 71.5 -63l73.5 -61h-512z" />
    <glyph glyph-name="Y" unicode="Y" horiz-adv-x="969" 
d="M811 536l-209 -297v-85l168 -154h-553l162 154v89l-219 308l-148 116h525l-107 -116l121 -166l118 171l-114 111h402z" />
    <glyph glyph-name="Z" unicode="Z" horiz-adv-x="807" 
d="M391 131h238l151 239v-370h-768l408 551h-205l-146 -195v311h726z" />
    <glyph glyph-name="bracketleft" unicode="[" horiz-adv-x="371" 
d="M12 -130v828h347v-41h-177v-744h177v-43h-347z" />
    <glyph glyph-name="backslash" unicode="\" horiz-adv-x="476" 
d="M12 698h80l372 -801h-79z" />
    <glyph glyph-name="bracketright" unicode="]" horiz-adv-x="371" 
d="M12 -87h177v744h-177v41h347v-828h-347v43z" />
    <glyph glyph-name="underscore" unicode="_" horiz-adv-x="500" 
d="M0 -97v76h500v-76h-500z" />
    <glyph glyph-name="grave" unicode="`" horiz-adv-x="271" 
d="M162 496l-150 170h197l50 -170h-97z" />
    <glyph glyph-name="a" unicode="a" horiz-adv-x="662" 
d="M650 86q0 -30 -12.5 -50.5t-32.5 -34t-45 -19.5t-51 -6q-24 0 -47.5 5.5t-42 18t-30.5 31.5t-15 46q-12 -29 -33.5 -48t-48 -31t-56 -17t-57.5 -5q-29 0 -58.5 5t-53.5 18t-39.5 35.5t-15.5 57.5q0 37 12.5 64t33.5 46t50 31t62 19l191 41v47q0 15 -8.5 24t-20.5 14.5
t-26 7.5t-25 2q-12 0 -27 -3t-28 -9.5t-22 -17t-9 -25.5q0 -12 2 -21t8 -20q-27 -5 -53 -12t-54 -7q-42 0 -58 18.5t-16 57.5q0 28 15.5 49.5t40.5 37t56.5 26t63.5 16.5t61 8.5t50 2.5q30 0 70.5 -5t77.5 -19.5t63 -39.5t26 -65v-223q0 -6 0.5 -17t3.5 -21.5t8.5 -18.5
t14.5 -8t14.5 6.5t8 15.5t3.5 19t1 16q0 11 -1 24t-6 22q33 -9 44 -34t11 -55zM363 214l-87 -19q-14 -3 -28 -7.5t-25.5 -12t-18.5 -19t-7 -28.5q0 -26 17.5 -40t42.5 -14q19 0 38 7.5t34 21t24.5 30.5t9.5 37v44z" />
    <glyph glyph-name="b" unicode="b" horiz-adv-x="709" 
d="M697 223q0 -53 -20.5 -98.5t-55 -79.5t-81.5 -53t-99 -19q-66 0 -118.5 34t-83.5 92l-88 -114h-17v584l-122 121h311v-303q22 50 55.5 76t88.5 26q54 0 96.5 -23t72.5 -60.5t45.5 -85t15.5 -97.5zM505 227q0 21 -4 47.5t-14 50t-27.5 39.5t-45.5 16q-25 0 -42.5 -16.5
t-28 -40.5t-15.5 -50.5t-5 -45.5q0 -21 4.5 -47t15 -49.5t28 -39.5t43.5 -16q28 0 45.5 16t27.5 39t14 49.5t4 47.5z" />
    <glyph glyph-name="c" unicode="c" horiz-adv-x="570" 
d="M557 349q0 -38 -27 -59.5t-63 -21.5q-14 0 -27 2.5t-24 10.5q2 8 3 16.5t1 16.5q0 45 -26.5 64.5t-68.5 19.5q-33 0 -56 -14t-37 -36t-20 -50t-6 -55q0 -32 8 -62t26.5 -53t48 -36.5t72.5 -13.5q25 0 51 5.5t48 18t38 32t22 47.5q3 14 4 27t1 27q15 -16 24 -38t9 -44
q0 -52 -23.5 -86.5t-60.5 -55.5t-82 -29.5t-87 -8.5q-54 0 -106.5 17.5t-94 50t-67 79t-25.5 105.5q0 62 25.5 111t69 83t101.5 52t122 18q30 0 69.5 -7.5t74.5 -24.5t59 -43.5t24 -64.5z" />
    <glyph glyph-name="d" unicode="d" horiz-adv-x="739" 
d="M393 0v80q-20 -51 -60 -79t-94 -28q-45 0 -85.5 19.5t-72.5 49.5q-39 38 -54 88t-15 103q0 103 69 177q30 32 71 55.5t86 23.5q57 0 94.5 -30t60.5 -79v190l-146 120h333v-570l147 -120h-334zM385 231q0 21 -3.5 48t-13.5 51t-27.5 40.5t-44.5 16.5q-29 0 -47 -16
t-28 -40t-14 -51t-4 -49t3.5 -49t13 -51t27.5 -40t48 -16q26 0 43.5 17t28 41t14.5 51t4 47z" />
    <glyph glyph-name="e" unicode="e" horiz-adv-x="576" 
d="M211 205q0 -66 43.5 -100t111.5 -34q29 0 58 6t54.5 17.5t46.5 28t33 37.5q3 -9 4 -18t1 -18q0 -44 -21 -73t-56.5 -46t-83 -24.5t-99.5 -7.5q-59 0 -111.5 16.5t-92.5 48.5t-63.5 79.5t-23.5 110.5q0 58 23 106.5t61.5 82.5t89.5 53t107 19q60 0 109 -21.5t84.5 -60
t55 -90.5t20.5 -112h-351zM405 287q0 46 -24 78t-72 32q-47 0 -72 -32.5t-25 -77.5h193z" />
    <glyph glyph-name="f" unicode="f" horiz-adv-x="565" 
d="M553 584q0 -19 -7.5 -32.5t-20 -22.5t-28.5 -13.5t-33 -4.5q-15 0 -28.5 2t-28.5 5q3 8 5 16.5t2 17.5q0 8 -2 18t-6.5 19t-11.5 15.5t-17 6.5t-17 -6.5t-11.5 -15.5t-6.5 -19t-2 -18v-74h135l-25 -96h-110v-259l147 -123h-475l146 123v259h-120l25 96h94v66q0 39 20 68
t51 48.5t68 29.5t70 10q27 0 59.5 -5t61 -18.5t47.5 -36t19 -56.5z" />
    <glyph glyph-name="g" unicode="g" horiz-adv-x="639" 
d="M627 -35q0 -45 -15.5 -83t-57.5 -60q-54 -28 -108.5 -36.5t-113.5 -8.5h-37.5t-36.5 1q-23 1 -64.5 6.5t-82 18.5t-70 34.5t-29.5 54.5q0 17 9 31t22.5 24.5t29 18.5t29.5 13q-16 7 -27.5 20.5t-18.5 29.5t-10.5 33.5t-3.5 34.5q0 19 4.5 41t14.5 41.5t25 35t35 21.5
q-23 17 -40.5 41t-17.5 53q0 41 24.5 69.5t61.5 46t81 25t83 7.5q47 0 94.5 -10.5t87.5 -35.5q-1 5 -1 9.5v9.5q0 28 17 49.5t47 21.5q28 0 45.5 -20t17.5 -47q0 -21 -10.5 -34t-31.5 -13q-2 0 -4.5 0.5t-4.5 0.5q0 5 -0.5 14t-2 17.5t-5.5 15t-11 6.5q-6 0 -9.5 -5
t-5.5 -12t-3 -14t-1 -11q0 -5 0.5 -10t1.5 -10q14 -15 22 -32.5t8 -37.5q0 -41 -24 -69.5t-61 -46t-81.5 -25.5t-84.5 -8q-29 0 -59 6t-58 16q-8 2 -13 4t-13 2q-7 0 -16 -3t-16.5 -8t-12.5 -11.5t-5 -14.5q0 -17 10 -27t27 -10q67 0 133.5 6.5t132.5 6.5q39 0 76 -13
t65.5 -37t45.5 -57.5t17 -75.5zM514 -90q0 12 -9 20t-21.5 13.5t-27 7.5t-25.5 2h-259q-9 -5 -17.5 -13.5t-8.5 -20.5q0 -20 23 -32t54 -18.5t61 -8.5t44 -2t44.5 1t62 6t55.5 15.5t24 29.5zM382 329q0 29 -19 51.5t-50 22.5q-30 0 -50 -22.5t-20 -51.5q0 -14 5.5 -27.5
t15 -23.5t22 -16t27.5 -6q30 0 49.5 22t19.5 51z" />
    <glyph glyph-name="h" unicode="h" horiz-adv-x="835" 
d="M437 0l76 101v186q0 31 -21.5 52t-52.5 21q-21 0 -37 -10.5t-27 -26.5t-18.5 -35t-13.5 -36q0 -1 -0.5 -1.5t-0.5 -1.5v-149l79 -100h-409l142 120v446l-137 124h325v-331q15 30 31 54.5t37 41t47.5 25.5t62.5 9q31 0 63 -8.5t57.5 -26t42 -44t16.5 -61.5v-226l124 -123
h-386z" />
    <glyph glyph-name="i" unicode="i" horiz-adv-x="469" 
d="M27 0l123 120v224l-138 134h325v-358l120 -120h-430zM334 602q0 -41 -28.5 -69.5t-69.5 -28.5t-69.5 28.5t-28.5 69.5t28.5 69.5t69.5 28.5q42 0 70 -28t28 -70z" />
    <glyph glyph-name="j" unicode="j" horiz-adv-x="358" 
d="M346 -49q0 -39 -16 -71t-43 -55.5t-62 -36t-72 -12.5q-31 0 -64.5 5t-62 18.5t-47 38t-18.5 62.5q0 18 8.5 33t22 25.5t30.5 16.5t34 6q10 0 21 -2.5l20 -4.5q0 -8 -1 -19t-1 -23q0 -20 6 -35.5t27 -15.5q14 0 23 8.5t9 22.5v440l-145 126h331v-527zM346 602
q0 -41 -28.5 -69.5t-69.5 -28.5t-69.5 28.5t-28.5 69.5t28.5 69.5t69.5 28.5q42 0 70 -28t28 -70z" />
    <glyph glyph-name="k" unicode="k" horiz-adv-x="863" 
d="M430 0l77 97l-67 101l-108 -88l84 -110h-394l122 120v451l-132 119h320v-449l138 118l-104 119h452l-223 -181l33 -46l37 -50.5l37.5 -49.5l34.5 -43q10 -12 24.5 -26.5t30.5 -28.5l31.5 -27.5t27.5 -25.5h-421z" />
    <glyph glyph-name="l" unicode="l" horiz-adv-x="469" 
d="M22 0l123 120v451l-133 119h320v-570l125 -120h-435z" />
    <glyph glyph-name="m" unicode="m" horiz-adv-x="1193" 
d="M780 0l77 101v186q0 35 -20 54t-55 19q-19 0 -33 -8.5t-25 -22t-19 -30t-14 -31.5v-170l78 -98h-340l77 101v186q0 35 -19.5 54t-54.5 19q-20 0 -35.5 -9.5t-26.5 -24t-19 -32.5t-14 -34v-160l80 -100h-389l122 120v224l-138 134h325v-112q15 29 31.5 52t37.5 38.5t47 24
t60 8.5q30 0 57.5 -9.5t50 -27t39 -41.5t24.5 -53q29 61 68.5 96t110.5 35q36 0 68.5 -11.5t58.5 -36.5q23 -21 37.5 -48t14.5 -59v-211l139 -123h-401z" />
    <glyph glyph-name="n" unicode="n" horiz-adv-x="830" 
d="M433 0l76 101v186q0 31 -21.5 52t-52.5 21q-21 0 -37 -10.5t-27.5 -26.5t-19 -35t-13.5 -36q0 -1 -0.5 -1.5t-0.5 -1.5v-149l79 -100h-389l123 120v224l-138 134h325v-119q29 61 68.5 95.5t110.5 34.5q31 0 63 -8.5t57.5 -26t42 -44t16.5 -61.5v-226l123 -123h-385z" />
    <glyph glyph-name="o" unicode="o" horiz-adv-x="643" 
d="M631 233q0 -61 -27.5 -109.5t-71.5 -82t-99.5 -51t-111.5 -17.5t-111 17.5t-99 51t-71.5 82t-27.5 109.5t27.5 109.5t71.5 82t99 51.5t111 18t111.5 -18t99.5 -51.5t71.5 -82t27.5 -109.5zM429 234q0 28 -5.5 57t-18.5 53t-34 39t-51 15t-51 -15t-34 -38.5t-19 -52.5
t-6 -58q0 -30 5.5 -59t18.5 -52.5t34 -38t52 -14.5t52 15t33.5 38.5t18 52.5t5.5 58z" />
    <glyph glyph-name="p" unicode="p" horiz-adv-x="739" 
d="M727 230q0 -53 -17.5 -99.5t-48 -81t-71.5 -54.5t-89 -20q-57 0 -94.5 29.5t-61.5 78.5v-176l147 -119q-116 1 -231 1h-231l128 118v441l-146 130h333v-96q20 51 60.5 79.5t94.5 28.5t96 -20t71 -55t44.5 -82.5t15.5 -102.5zM535 232q0 22 -3.5 49t-13 50.5t-27.5 39.5
t-47 16q-26 0 -43 -17t-27.5 -41t-15 -50.5t-4.5 -46.5t4 -47t13.5 -51.5t26.5 -41.5t44 -17q28 0 46.5 16t28.5 40t14 51.5t4 49.5z" />
    <glyph glyph-name="q" unicode="q" horiz-adv-x="589" 
d="M246 -212l139 121v169q-21 -50 -54.5 -75t-88.5 -25q-54 0 -96.5 22.5t-72.5 59.5t-45.5 84.5t-15.5 97.5q0 53 20 99t55 79.5t81 53t99 19.5q66 0 118.5 -34.5t83.5 -92.5l88 114h17v-571l129 -121h-457zM385 238q0 21 -4.5 47t-15 49.5t-28 39.5t-43.5 16
q-27 0 -45 -16t-28 -39t-14 -49.5t-4 -47.5t4 -47.5t14 -50t28 -39.5t45 -16q25 0 42.5 16.5t28 40t15.5 50t5 46.5z" />
    <glyph glyph-name="r" unicode="r" horiz-adv-x="636" 
d="M624 354q0 -54 -29 -91t-87 -37q-17 0 -33 4t-32 9q10 16 14 36t4 38q0 21 -9.5 40.5t-34.5 19.5q-26 0 -44 -20t-29.5 -48.5t-17 -58.5t-5.5 -49v-77l149 -120h-456l121 120v226l-123 132h303v-150q12 30 25 57.5t31.5 48t44.5 32.5t64 12q27 0 52.5 -8.5t46 -24.5
t33 -39t12.5 -52z" />
    <glyph glyph-name="s" unicode="s" horiz-adv-x="584" 
d="M572 141q0 -45 -21 -77t-54 -52.5t-73.5 -29.5t-79.5 -9q-26 0 -56 3.5t-59.5 10.5t-58 17t-51.5 22l-94 -51v243q29 -39 67.5 -69.5t83.5 -51.5t93.5 -31.5t96.5 -10.5q6 0 16 1.5t19 5t16 9.5t7 14q0 16 -15 21t-28 8q-23 5 -49 6t-50 3q-29 3 -60 8.5t-61 15t-57.5 24
t-49.5 34.5q-25 23 -33.5 56.5t-8.5 66.5q0 42 17.5 73t46 52t65 31t74.5 10q51 0 104.5 -9.5t98.5 -34.5l89 40v-199q-59 62 -126.5 85.5t-151.5 23.5q-8 0 -21.5 -1t-26.5 -4t-22.5 -9t-9.5 -16q0 -9 4.5 -15t11.5 -9t15 -4t15 -1q32 -2 72.5 -5t82.5 -10.5t82 -20t71 -34
t50 -53.5t19 -77z" />
    <glyph glyph-name="t" unicode="t" horiz-adv-x="462" 
d="M450 120q0 -34 -14.5 -61t-38.5 -46t-54.5 -29.5t-61.5 -10.5t-61 10.5t-54 29.5t-38.5 46t-14.5 61v261h-101v43q94 30 165 97.5t106 159.5h16v-203h130l-45 -97h-85v-246q0 -17 11 -29.5t28 -12.5q19 0 30 9t16.5 22.5t7 29.5t1.5 31q0 20 -5 45q16 -2 28 -13.5
t19.5 -28t11 -35t3.5 -33.5z" />
    <glyph glyph-name="u" unicode="u" horiz-adv-x="830" 
d="M493 0v103q-29 -62 -68.5 -95t-109.5 -33q-31 0 -62.5 8.5t-57.5 25.5t-42.5 43.5t-16.5 61.5v241l-124 123h309v-302q0 -31 22 -52t53 -21q40 0 62 34q3 4 9 15t11.5 23.5l10 23t4.5 15.5v141l-134 123h322v-344l137 -134h-325z" />
    <glyph glyph-name="v" unicode="v" horiz-adv-x="827" 
d="M815 478l-125 -122l-136 -258l85 -98h-434l90 99l-155 256l-128 123h437l-93 -112l107 -190l91 190l-90 112h351z" />
    <glyph glyph-name="w" unicode="w" horiz-adv-x="1149" 
d="M1021 365l-121 -291l68 -74h-369l62 79l-84 181l-75 -181l65 -79h-391l82 97l-120 259l-126 122h387l-71 -113l94 -191l71 203l-81 101h401l-84 -113l95 -198l77 198l-77 113h313z" />
    <glyph glyph-name="x" unicode="x" horiz-adv-x="843" 
d="M406 0l71 67l-80 70l-77 -60l73 -77h-370l290 214l-194 186l-107 78h435l-64 -88l64 -67l73 67l-64 88h339l-262 -228l185 -170l113 -80h-425z" />
    <glyph glyph-name="y" unicode="y" horiz-adv-x="820" 
d="M687 358l-153 -411q-15 -40 -34 -72t-45.5 -54t-60.5 -33.5t-79 -11.5q-24 0 -54.5 6t-57.5 19.5t-45.5 35t-18.5 52.5q0 26 12 45.5t31 33t42.5 20.5t46.5 7q22 0 45 -6q-2 -3 -4 -11t-3.5 -17t-2.5 -17.5t-1 -12.5q0 -9 1 -19t5 -18.5t10.5 -14.5t17.5 -6q14 0 25 11
t19 27t12.5 33t6.5 28l-240 386l-10.5 8.5l-26.5 21.5l-34.5 27.5l-35 28l-28.5 23t-15 11.5h444l-79 -106l112 -191l71 184l-87 113h335z" />
    <glyph glyph-name="z" unicode="z" horiz-adv-x="619" 
d="M331 96h149l111 154v-250h-579l284 390h-129l-114 -156v244h554z" />
    <glyph glyph-name="braceleft" unicode="{" horiz-adv-x="437" 
d="M207 -123q-20 0 -36.5 9.5t-28 24.5t-18 34t-6.5 37v200q0 24 -9 40t-23.5 26t-33.5 14t-40 4v43q21 0 40 4t33.5 14t23.5 26t9 40v201q0 19 6.5 37.5t18 33.5t28 24t36.5 9h218v-41h-101q-14 0 -25 -11t-11 -25v-217q0 -49 -32 -80.5t-80 -36.5q48 -4 80 -36t32 -81
v-216q0 -14 11 -24.5t25 -11.5h101v-41h-218z" />
    <glyph glyph-name="bar" unicode="|" horiz-adv-x="500" 
 />
    <glyph glyph-name="braceright" unicode="}" horiz-adv-x="437" 
d="M12 -82h101q14 0 25 11.5t11 25.5v215q0 49 32 81t80 36q-48 5 -80 36.5t-32 80.5v217q0 14 -11 25t-25 11h-101v41h218q20 0 36.5 -9t28 -24t18 -33.5t6.5 -37.5v-201q0 -24 9 -40t24 -25.5t34 -14t39 -4.5v-43q-20 0 -39 -4.5t-34 -14t-24 -25.5t-9 -40v-201
q0 -40 -26 -71q-12 -15 -27.5 -24t-35.5 -9h-218v41z" />
    <glyph glyph-name="quotesinglbase" unicode="&#x201a;" horiz-adv-x="207" 
d="M195 55q0 -37 -14.5 -68.5t-39 -55.5t-56.5 -39t-66 -19l3 18q32 20 59 48t37 66q-5 -1 -8.5 -1.5t-8.5 -0.5q-38 0 -63.5 27.5t-25.5 64.5q0 19 6.5 35.5t18.5 29.5t28.5 20.5t35.5 7.5q27 0 45.5 -12.5t29 -31.5t15 -43t4.5 -46z" />
    <glyph glyph-name="quotedblbase" unicode="&#x201e;" horiz-adv-x="397" 
d="M195 45q0 -37 -14.5 -68.5t-39 -55.5t-56.5 -39t-66 -19l3 18q32 20 59.5 48.5t36.5 66.5q-5 -1 -8.5 -1.5t-8.5 -0.5q-38 0 -63.5 27t-25.5 64q0 19 6.5 35.5t18.5 29.5t28.5 20.5t35.5 7.5q27 0 45.5 -12.5t29 -31.5t15 -43t4.5 -46zM385 45q0 -37 -14.5 -68.5
t-39 -55.5t-56.5 -39t-66 -19l3 18q32 20 59.5 48.5t36.5 66.5q-5 -1 -8.5 -1.5t-8.5 -0.5q-38 0 -63.5 27t-25.5 64q0 19 6.5 35.5t18.5 29.5t28.5 20.5t35.5 7.5q27 0 45.5 -12.5t29 -31.5t15 -43t4.5 -46z" />
    <glyph glyph-name="ellipsis" unicode="&#x2026;" horiz-adv-x="613" 
d="M201 83q0 -40 -28 -66.5t-67 -26.5t-66.5 27t-27.5 66q0 19 7.5 36.5t20 30.5t29.5 20.5t37 7.5q19 0 36.5 -7.5t30.5 -20.5t20.5 -30.5t7.5 -36.5zM401 83q0 -40 -28 -66.5t-67 -26.5t-66.5 27t-27.5 66q0 19 7.5 36.5t20 30.5t29.5 20.5t37 7.5q19 0 36.5 -7.5
t30.5 -20.5t20.5 -30.5t7.5 -36.5zM601 83q0 -40 -28 -66.5t-67 -26.5t-66.5 27t-27.5 66q0 19 7.5 36.5t20 30.5t29.5 20.5t37 7.5q19 0 36.5 -7.5t30.5 -20.5t20.5 -30.5t7.5 -36.5z" />
    <glyph glyph-name="dagger" unicode="&#x2020;" horiz-adv-x="620" 
d="M508 292h-95v-289l112 -109h-429l114 109v289h-100l-98 -124v365q26 -26 50 -59.5t47 -62.5h101v142l-116 113h431l-112 -113v-142h94l101 122v-364z" />
    <glyph glyph-name="daggerdbl" unicode="&#x2021;" horiz-adv-x="620" 
d="M507 99h-94v-96l112 -109h-429l114 109v96h-101l-97 -122v241h198v134h-198v241l97 -122h101v82l-116 113h431l-112 -113v-82h94l101 122v-240h-195v-136h195v-240z" />
    <glyph glyph-name="circumflex" unicode="&#x2c6;" horiz-adv-x="398" 
d="M198 496l-34 96l-33 -96h-119l107 171h154l113 -171h-188z" />
    <glyph glyph-name="perthousand" unicode="&#x2030;" horiz-adv-x="885" 
d="M180 0h-79l317 667h80zM291 508q0 -38 -12 -68t-31.5 -50.5t-45 -31.5t-51.5 -11t-51 11t-44.5 31.5t-31.5 50.5t-12 68t12 68t31.5 51t44.5 32t51 11q27 0 52 -11t44.5 -32t31.5 -51t12 -68zM200 508q0 18 -3 36.5t-9 33.5t-15 24t-22 9q-12 0 -21 -9t-15 -24t-9 -33.5
t-3 -36.5q0 -21 3 -39.5t9 -32.5t15 -22.5t21 -8.5q13 0 22.5 8.5t15.5 22.5t8.5 32.5t2.5 39.5zM442 -3q-35 0 -60.5 13.5t-42.5 35.5t-25.5 50t-8.5 57q0 30 8.5 58t26 50t43 35.5t59.5 13.5q26 0 50.5 -9.5t44 -29t31 -48.5t11.5 -68q0 -30 -8.5 -58t-26 -50.5t-43 -36
t-59.5 -13.5zM491 152q0 18 -3 36.5t-9 33.5t-15 24t-22 9q-12 0 -21 -9t-15 -24t-9 -33.5t-3 -36.5q0 -21 3 -39.5t9 -32.5t15 -22.5t21 -8.5q13 0 22.5 8.5t15.5 22.5t8.5 32.5t2.5 39.5zM736 -3q-35 0 -60.5 13.5t-42.5 35.5t-25.5 50t-8.5 57q0 30 8.5 58t26 50t43 35.5
t59.5 13.5q26 0 50.5 -9.5t44 -29t31 -48.5t11.5 -68q0 -30 -8.5 -58t-26 -50.5t-43 -36t-59.5 -13.5zM785 152q0 18 -3 36.5t-9 33.5t-15 24t-22 9q-12 0 -21 -9t-15 -24t-9 -33.5t-3 -36.5q0 -21 3 -39.5t9 -32.5t15 -22.5t21 -8.5q13 0 22.5 8.5t15.5 22.5t8.5 32.5
t2.5 39.5z" />
    <glyph glyph-name="guilsinglleft" unicode="&#x2039;" horiz-adv-x="377" 
d="M195 177l-183 184l183 184h170l-184 -184l184 -184h-170z" />
    <glyph glyph-name="OE" unicode="&#x152;" horiz-adv-x="1289" 
d="M627 0q-46 -17 -93.5 -26.5t-96.5 -9.5q-76 0 -152 23t-136.5 68t-98.5 110.5t-38 149.5t37 152.5t97.5 117.5t136.5 75.5t154 26.5q18 0 36 -1.5t35 -3.5q6 -1 16 -3.5t20.5 -5.5t19.5 -5t12 -2h686v-289l-157 173h-272v-146h126l117 83v-299l-117 83h-126v-140h262
l182 186v-317h-650zM596 326q0 35 -8.5 77.5t-27.5 79t-49.5 61.5t-73.5 25t-73 -25t-49 -62t-27.5 -79.5t-8.5 -76.5q0 -35 8.5 -76t27 -76t48.5 -58t74 -23t74.5 23t49 58t27 75.5t8.5 76.5z" />
    <glyph glyph-name="quoteleft" unicode="&#x2018;" horiz-adv-x="207" 
d="M12 555q0 37 14.5 68.5t38.5 55.5t56 39.5t67 19.5l-3 -18q-33 -21 -59 -48.5t-37 -66.5q5 1 8.5 1.5t8.5 0.5q38 0 63.5 -27.5t25.5 -64.5q0 -19 -6.5 -36t-18.5 -29.5t-28.5 -20t-35.5 -7.5q-27 0 -45.5 12t-29 31.5t-15 43t-4.5 46.5z" />
    <glyph glyph-name="quoteright" unicode="&#x2019;" horiz-adv-x="207" 
d="M195 605q0 -37 -14.5 -68.5t-38.5 -55.5t-56 -39.5t-67 -19.5l3 18q32 20 59 48.5t37 66.5q-5 -1 -8.5 -1.5t-8.5 -0.5q-38 0 -63.5 27.5t-25.5 64.5q0 19 6.5 35.5t18.5 29.5t28.5 20.5t35.5 7.5q27 0 45.5 -12.5t29 -31.5t15 -43t4.5 -46z" />
    <glyph glyph-name="quotedblleft" unicode="&#x201c;" horiz-adv-x="397" 
d="M12 555q0 37 14.5 68.5t38.5 55.5t56 39.5t67 19.5l-3 -18q-33 -21 -59 -48.5t-37 -66.5q5 1 8.5 1.5t8.5 0.5q38 0 63.5 -27.5t25.5 -64.5q0 -19 -6.5 -36t-18.5 -29.5t-28.5 -20t-35.5 -7.5q-27 0 -45.5 12t-29 31.5t-15 43t-4.5 46.5zM202 555q0 37 14.5 68.5
t38.5 55.5t56 39.5t67 19.5l-3 -18q-33 -21 -59 -48.5t-37 -66.5q5 1 8.5 1.5t8.5 0.5q38 0 63.5 -27.5t25.5 -64.5q0 -19 -6.5 -36t-18.5 -29.5t-28.5 -20t-35.5 -7.5q-27 0 -45.5 12t-29 31.5t-15 43t-4.5 46.5z" />
    <glyph glyph-name="quotedblright" unicode="&#x201d;" horiz-adv-x="397" 
d="M195 605q0 -37 -14.5 -68.5t-38.5 -55.5t-56 -39.5t-67 -19.5l3 18q32 20 59 48.5t37 66.5q-5 -1 -8.5 -1.5t-8.5 -0.5q-38 0 -63.5 27.5t-25.5 64.5q0 19 6.5 35.5t18.5 29.5t28.5 20.5t35.5 7.5q27 0 45.5 -12.5t29 -31.5t15 -43t4.5 -46zM385 605q0 -37 -14.5 -68.5
t-38.5 -55.5t-56 -39.5t-67 -19.5l3 18q32 20 59 48.5t37 66.5q-5 -1 -8.5 -1.5t-8.5 -0.5q-38 0 -63.5 27.5t-25.5 64.5q0 19 6.5 35.5t18.5 29.5t28.5 20.5t35.5 7.5q27 0 45.5 -12.5t29 -31.5t15 -43t4.5 -46z" />
    <glyph glyph-name="bullet" unicode="&#x2022;" horiz-adv-x="402" 
d="M390 336q0 -39 -15 -73.5t-41 -60t-60.5 -40t-73.5 -14.5t-73.5 14.5t-60 40t-40 60t-14.5 73.5t14.5 73.5t40 60.5t60 41t73.5 15t74 -15t60.5 -40.5t40.5 -60.5t15 -74z" />
    <glyph glyph-name="endash" unicode="&#x2013;" horiz-adv-x="520" 
d="M12 153v159h496v-159h-496z" />
    <glyph glyph-name="emdash" unicode="&#x2014;" horiz-adv-x="618" 
d="M12 153v159h594v-159h-594z" />
    <glyph glyph-name="tilde" unicode="&#x2dc;" horiz-adv-x="430" 
d="M417 665q-3 -30 -11 -60t-23.5 -55t-40.5 -40.5t-61 -15.5q-26 0 -51.5 11t-50.5 24.5t-48.5 24.5t-45.5 11q-17 0 -25 -5t-11.5 -13.5t-5 -18t-5.5 -18.5h-26q0 26 9.5 55.5t27.5 54t43.5 41t58.5 16.5q24 0 46.5 -11.5t44 -25t43 -24.5t45.5 -11q29 0 41.5 18.5
t19.5 41.5h26z" />
    <glyph glyph-name="trademark" unicode="&#x2122;" horiz-adv-x="731" 
d="M238 620h-41v-161l61 -62h-204l61 62v161h-40l-63 -84l6 131h276l6 -131zM524 397l55 62v178l-63 -240h-43l-61 227v-165l56 -62h-162l59 62v145l-59 63h167l33 -123l32 123h181l-58 -63v-145l58 -62h-195z" />
    <glyph glyph-name="guilsinglright" unicode="&#x203a;" horiz-adv-x="377" 
d="M196 361l-184 184h170l183 -184l-183 -184h-170z" />
    <glyph glyph-name="oe" unicode="&#x153;" horiz-adv-x="1006" 
d="M988 158q6 -18 6 -36q0 -44 -32 -79q-21 -24 -49 -38.5t-59 -22t-63.5 -9.5t-62.5 -2q-54 0 -107 14t-96 49q-45 -32 -97.5 -47.5t-106.5 -15.5q-55 0 -110 17.5t-99.5 51t-72 81.5t-27.5 109t27.5 109t71.5 82t99 52t111 18q57 0 111 -17t99 -52q39 32 87.5 48t99.5 16
q60 0 109 -22.5t84 -61.5t55 -90.5t22 -108.5h-352q0 -42 12.5 -67.5t35 -39.5t53 -18.5t66.5 -4.5q55 0 105 17.5t80 67.5zM429 231q0 24 -5.5 53t-18.5 53.5t-34 41t-51 16.5t-51 -16.5t-34 -41t-19 -53t-6 -53.5q0 -26 5.5 -54.5t18.5 -52.5t34 -40t52 -16t52 16t33.5 40
t18 52.5t5.5 54.5zM829 284q0 45 -23.5 77.5t-71.5 32.5q-47 0 -72 -32.5t-25 -77.5h192z" />
    <glyph glyph-name="nonbreakingspace" unicode="&#xa0;" horiz-adv-x="250" 
 />
    <glyph glyph-name="exclamdown" unicode="&#xa1;" horiz-adv-x="213" 
d="M16 -133q0 35 8 68.5t19 65.5q19 51 34.5 103t26.5 105h8q11 -53 26.5 -105t33.5 -103q12 -32 20 -65.5t8 -67.5q0 -20 -6 -41t-17.5 -38.5t-28.5 -28.5t-40 -11t-40 11t-28.5 28.5t-17.5 38t-6 40.5zM12 351q0 20 7.5 37t20.5 30t30 20t37 7q19 0 36.5 -7.5t30 -20
t20 -30t7.5 -36.5q0 -20 -7 -37t-20 -30t-30 -20.5t-37 -7.5t-37 7.5t-30 20.5t-20.5 30t-7.5 37z" />
    <glyph glyph-name="cent" unicode="&#xa2;" horiz-adv-x="569" 
d="M557 444q0 -19 -7.5 -34t-20 -25.5t-28.5 -16t-34 -5.5q-14 0 -27 3t-24 11q2 8 3 16.5t1 16.5q0 44 -27 63.5t-68 19.5q-33 0 -55 -14t-34.5 -36t-17.5 -50t-5 -55q0 -34 8.5 -64t26 -52t45 -35t65.5 -13q25 0 51 5.5t47.5 18t37.5 32t22 47.5q3 14 4 27t1 27
q33 -38 33 -88q0 -41 -17 -71t-44 -51t-61.5 -33t-69.5 -17v-121h-67v118q-53 2 -104 20.5t-91 51.5t-64 79.5t-24 103.5q0 56 25 102t65 79.5t91 53.5t102 25v135h67v-135q28 -4 62 -13t63.5 -25t49.5 -40.5t20 -60.5z" />
    <glyph glyph-name="sterling" unicode="&#xa3;" horiz-adv-x="698" 
d="M686 114q0 -38 -25.5 -64t-61.5 -43t-76 -24.5t-69 -7.5q-48 0 -89 8t-85 30l-49.5 26t-54.5 12q-21 0 -43 -6.5t-42 -17t-38 -24t-33 -28.5v152h4q21 0 39.5 7t32.5 19.5t22.5 30.5t8.5 39q0 7 -1 13.5t-3 12.5h-104v98h50q-26 25 -41.5 57t-15.5 68q0 60 30 101
t76 66.5t100.5 36.5t104.5 11q28 0 59 -1.5t62 -6t60.5 -13.5t53.5 -23q14 -8 27.5 -18t24.5 -22.5t18 -27.5t7 -32q0 -32 -17.5 -52.5t-43.5 -33.5t-56 -18t-55 -5h-16t-16 2l9 17.5t7 14.5t4.5 15.5t1.5 21.5q0 21 -10.5 35.5t-26 24.5t-34.5 14.5t-37 4.5
q-22 0 -41.5 -4.5t-34.5 -15t-23.5 -27.5t-8.5 -42q0 -19 5.5 -39.5t14.5 -40t21 -37t25 -31.5h129v-98h-82q0 -20 -5 -39.5t-15 -36t-25.5 -28.5t-36.5 -16q11 -10 29 -19t38 -16t39.5 -11t34.5 -4q42 0 70 24.5t28 67.5q0 31 -19 58q28 0 62.5 -4.5t64.5 -17t50.5 -35
t20.5 -58.5z" />
    <glyph glyph-name="currency" unicode="&#xa4;" horiz-adv-x="892" 
d="M793 85q-59 -43 -129.5 -64t-142.5 -21q-69 0 -138.5 19t-128 55t-100.5 87.5t-55 116.5h-87l47 63h28q0 5 -0.5 8.5t-0.5 7.5t0.5 7.5t0.5 8.5h-75l47 63h40q13 61 51.5 112t95 88t127 57.5t148.5 20.5q73 0 143 -21.5t129 -64.5l87 72v-318q-14 47 -45 85t-71.5 65
t-88 41.5t-94.5 14.5q-35 0 -68.5 -9t-62 -27.5t-50.5 -47t-35 -68.5h346l-47 -63h-308q-1 -5 -1 -16v-8t1 -8h295l-47 -63h-239q13 -40 35 -69t50 -47.5t61.5 -27.5t68.5 -9q47 0 94.5 14.5t88.5 41.5t72 65t45 85v-318z" />
    <glyph glyph-name="yen" unicode="&#xa5;" horiz-adv-x="969" 
d="M957 666l-74 -64t-72 -67q-12 -12 -23 -30.5t-21 -32.5h104v-98h-173l-60 -85h233v-98h-269v-38l168 -153h-553l162 153v38h-273v98h240l-61 85h-179v98h109l-10.5 15l-18 25.5l-17.5 25t-9 12.5q-12 12 -31.5 27l-40.5 31l-41.5 31.5l-34.5 26.5h525l-107 -116l121 -166
l118 171l-114 111h402v0z" />
    <glyph glyph-name="brokenbar" unicode="&#xa6;" horiz-adv-x="500" 
 />
    <glyph glyph-name="dieresis" unicode="&#xa8;" horiz-adv-x="250" 
d="M115 547q0 -21 -15 -36t-36 -15q-22 0 -37 14.5t-15 36.5t15 36.5t37 14.5q21 0 36 -15t15 -36zM238 547q0 -21 -15 -36t-36 -15q-22 0 -37 14.5t-15 36.5t15 36.5t37 14.5q21 0 36 -15t15 -36z" />
    <glyph glyph-name="copyright" unicode="&#xa9;" horiz-adv-x="748" 
d="M573 355q-9 26 -27 47t-41 35.5t-49.5 22.5t-52.5 8q-30 0 -53 -9.5t-38 -25.5t-22.5 -37t-7.5 -43q0 -26 9.5 -50.5t28 -44.5t46.5 -32t64 -12q24 0 46.5 7t40 21t28.5 36.5t11 52.5q12 -9 17 -23t5 -28q0 -38 -18 -65.5t-46.5 -44.5t-65 -25t-72.5 -8q-58 0 -101 17.5
t-72 45.5t-43.5 64t-14.5 74t14.5 74t43 64.5t71.5 45.5t100 17q41 0 80 -12t72 -35l47 40v-177zM736 342q0 -75 -28.5 -141t-77.5 -115t-115 -77t-141 -28t-141 28.5t-115 77t-77.5 114.5t-28.5 141t28.5 141t77.5 115t115 77.5t141 28.5t141 -28.5t115 -77.5t77.5 -115
t28.5 -141zM696 342q0 67 -25.5 126t-69 102.5t-102 68.5t-125.5 25t-126 -25t-102.5 -68.5t-68.5 -102.5t-25 -126t25 -126t68.5 -102.5t102.5 -68.5t126 -25t126 25t102.5 68.5t68.5 102.5t25 126z" />
    <glyph glyph-name="ordfeminine" unicode="&#xaa;" horiz-adv-x="418" 
d="M406 423q0 -37 -26 -53t-59 -16q-15 0 -30 3.5t-26.5 11t-19 19.5t-8.5 29q-6 -18 -19.5 -30t-31 -19.5t-36 -10.5t-34.5 -3q-18 0 -36.5 3t-33.5 11t-24.5 22t-9.5 36q0 46 28.5 69t69.5 31l119 25v30q0 9 -5 15t-12.5 9t-16 4.5t-15.5 1.5q-18 0 -36 -8t-18 -29
q0 -5 1.5 -12t4.5 -11q-16 -5 -33 -8.5t-34 -3.5q-46 0 -46 45q0 27 20.5 44.5t49 27.5t59 13.5t50.5 3.5q19 0 44 -3t48 -12t39 -24.5t16 -40.5v-138q0 -4 0.5 -11t2 -13.5t5 -11.5t9.5 -5q11 0 14 13.5t3 21.5t-1 15t-4 14q21 -5 26.5 -20t5.5 -35zM230 502
q-10 -2 -27.5 -4.5t-34 -7.5t-29 -15t-12.5 -26t10.5 -25t25.5 -9q11 0 23 4.5t21.5 12.5t16 18.5t6.5 22.5v29zM11 344h396v-43h-396v43z" />
    <glyph glyph-name="guillemotleft" unicode="&#xab;" horiz-adv-x="587" 
d="M195 177l-183 184l183 184h170l-184 -184l184 -184h-170zM405 177l-183 184l183 184h170l-184 -184l184 -184h-170z" />
    <glyph glyph-name="registered" unicode="&#xae;" horiz-adv-x="389" 
d="M377 517q0 -38 -14 -71.5t-38.5 -58t-58 -39t-71.5 -14.5t-71.5 14t-58.5 39t-39 58.5t-14 71.5t14.5 71.5t39 58t58 38.5t71.5 14t71 -14t58 -39t39 -58t14 -71zM347 517q0 31 -12 59t-32.5 48.5t-48.5 32.5t-59 12q-32 0 -59.5 -12t-48.5 -32.5t-33 -48t-12 -59.5
t12 -60t32.5 -48.5t48.5 -32.5t60 -12q31 0 59 12t48.5 33t32.5 48.5t12 59.5zM234 436q-1 4 -3 14.5t-5 21.5t-8 19t-13 8h-28v-25l34 -38h-112l32 37v90l-33 38h136q18 0 33 -13t15 -32q0 -20 -11.5 -31t-30.5 -11q17 -6 26 -21.5t10 -32.5l23 -24h-65zM233 550
q0 5 -2.5 11.5t-9.5 6.5h-44v-36h44q6 0 9 6.5t3 11.5z" />
    <glyph glyph-name="macron" unicode="&#xaf;" horiz-adv-x="321" 
d="M12 496v109h297v-109h-297z" />
    <glyph glyph-name="twosuperior" unicode="&#xb2;" horiz-adv-x="385" 
d="M373 610q0 -15 -7 -27.5t-17.5 -22.5t-23.5 -18t-25 -14l-95.5 -45t-91.5 -51h182l72 94v-159h-355q4 24 28 51t55 52.5t63 47l53 35.5q12 8 21.5 25t9.5 31q0 29 -18 39t-44 10q-23 0 -42.5 -14t-19.5 -39q0 -16 3.5 -31.5t14.5 -26.5q-1 -3 -5 -5t-9.5 -2.5l-10.5 -1
t-8 -0.5q-34 0 -59.5 17.5t-25.5 54.5q0 28 19.5 47.5t47 31.5t58 17.5t52.5 5.5t52.5 -5.5t58.5 -17.5t47.5 -31.5t19.5 -47.5z" />
    <glyph glyph-name="threesuperior" unicode="&#xb3;" horiz-adv-x="378" 
d="M366 449q0 -30 -19.5 -49.5t-47 -31t-58 -16t-52.5 -4.5q-21 0 -51.5 4t-58 14.5t-47.5 28.5t-20 47q0 15 7.5 26t19 17.5t25 9.5t26.5 3q7 0 14 -0.5t14 -2.5q-6 -5 -8 -15.5t-2 -17.5q0 -32 21 -42.5t47 -10.5q11 0 23 2.5t21.5 7.5t16 14t6.5 23q0 16 -6 25.5
t-16 14.5t-22 6.5t-25 1.5h-23v51h33q11 0 21 1.5t17 6.5t11 14t4 25q0 24 -20 35.5t-41 11.5q-26 0 -44.5 -11.5t-18.5 -40.5q0 -14 9 -28q-12 -3 -26 -3q-11 0 -23.5 3t-23.5 9t-18 15.5t-7 22.5q0 27 18.5 44t44.5 26.5t54 13.5t48 4q23 0 51.5 -5t53.5 -17t42 -32
t17 -49q0 -15 -7.5 -27t-19 -21t-25 -15.5t-26.5 -10.5q15 -3 31 -9t29.5 -15.5t22 -22.5t8.5 -31z" />
    <glyph glyph-name="acute" unicode="&#xb4;" horiz-adv-x="271" 
d="M109 496h-97l50 171h197z" />
    <glyph glyph-name="periodcentered" unicode="&#xb7;" horiz-adv-x="213" 
d="M201 323q0 -20 -7.5 -37t-20.5 -30t-30.5 -20t-36.5 -7q-20 0 -37 7.5t-29.5 20t-20 29.5t-7.5 37q0 19 7 36.5t20 30.5t30 20.5t37 7.5q19 0 36.5 -7.5t30.5 -20.5t20.5 -30.5t7.5 -36.5z" />
    <glyph glyph-name="cedilla" unicode="&#xb8;" horiz-adv-x="272" 
d="M260 -103q0 -24 -13 -43t-33 -32t-43.5 -19.5t-44.5 -6.5q-18 0 -38.5 4.5t-37 14.5t-27.5 26t-11 38q0 15 10.5 25.5t25.5 10.5q7 0 13.5 -1t11.5 -6q-2 -6 -3 -12t-1 -12q0 -21 10 -37.5t33 -16.5q14 0 24 7.5t16 19t8.5 25t2.5 24.5q0 26 -12.5 43t-39.5 17
q-25 0 -48 -13q17 26 37 36.5t51 10.5q48 0 78.5 -26.5t30.5 -76.5z" />
    <glyph glyph-name="onesuperior" unicode="&#xb9;" horiz-adv-x="322" 
d="M12 372l99 78v186l-99 71h210v-258l88 -77h-298z" />
    <glyph glyph-name="ordmasculine" unicode="&#xba;" horiz-adv-x="409" 
d="M397 514q0 -38 -17 -68t-44.5 -51t-62 -32.5t-68.5 -11.5q-35 0 -69 11.5t-62 32.5t-45 51t-17 68t17 68t45 51t62 32t69 11q34 0 68.5 -11t62 -32t44.5 -51t17 -68zM272 514q0 15 -3.5 33t-11.5 33t-21 25.5t-32 10.5t-32 -10t-21 -25.5t-11.5 -33.5t-3.5 -33
q0 -16 3.5 -34t11 -33t20.5 -25t33 -10q19 0 32 10t21 25t11.5 33t3.5 34zM11 344h387v-43h-387v43z" />
    <glyph glyph-name="guillemotright" unicode="&#xbb;" horiz-adv-x="577" 
d="M196 361l-184 184h170l183 -184l-183 -184h-170zM396 361l-184 184h170l183 -184l-183 -184h-170z" />
    <glyph glyph-name="onequarter" unicode="&#xbc;" horiz-adv-x="784" 
d="M172 0h-80l574 666h80zM473 0l100 77v16h-204v65l211 175h104v-184h82l-28 -56h-54v-17l88 -76h-299zM573 256l-122 -107h122v107zM34 332l99 78v186l-99 71h210v-258l88 -77h-298z" />
    <glyph glyph-name="onehalf" unicode="&#xbd;" horiz-adv-x="811" 
d="M799 240q0 -15 -7 -27.5t-17.5 -22.5t-23.5 -18t-25 -14l-95.5 -45t-91.5 -51h182l72 94v-159h-355q1 8 10.5 24t24 34t31 35t31.5 26l42 25.5t43 28.5t34 32t14 37q0 29 -18 39t-44 10q-23 0 -42.5 -14t-19.5 -39q0 -16 3.5 -31.5t14.5 -26.5q-1 -3 -5 -5t-9.5 -2.5
l-10.5 -1t-8 -0.5q-34 0 -59.5 17.5t-25.5 54.5q0 28 19.5 47.5t47 31.5t58 17.5t52.5 5.5t52.5 -5.5t58.5 -17.5t47.5 -31.5t19.5 -47.5zM172 0h-80l574 666h80zM34 332l99 78v186l-99 71h210v-258l88 -77h-298z" />
    <glyph glyph-name="threequarters" unicode="&#xbe;" horiz-adv-x="784" 
d="M371 412q0 -30 -19.5 -49.5t-47 -31t-58 -16t-52.5 -4.5q-21 0 -51 4t-58 14.5t-47.5 28.5t-19.5 47q0 15 7 26t18.5 17.5t25 9.5t26.5 3q7 0 14 -0.5t14 -2.5q-6 -5 -8 -15.5t-2 -17.5q0 -32 21 -42.5t47 -10.5q11 0 23 2.5t21.5 7.5t16 14t6.5 23q0 16 -6 25.5
t-15.5 14.5t-22 6.5t-25.5 1.5h-23v50h33q22 0 37.5 8t15.5 40q0 24 -20 35.5t-41 11.5q-26 0 -44.5 -11.5t-18.5 -40.5q0 -14 9 -28q-12 -3 -26 -3q-11 0 -23.5 3t-23.5 9t-18 15.5t-7 22.5q0 27 18.5 44t44.5 26.5t54 13.5t48 4q23 0 51.5 -5t53.5 -17t42 -32t17 -49
q0 -15 -7.5 -27t-19 -21t-25 -15.5t-26.5 -10.5q15 -3 31 -9t29.5 -15.5t22 -22.5t8.5 -31zM172 0h-80l574 666h80zM473 0l100 77v16h-204v65l211 175h104v-184h82l-28 -56h-54v-17l88 -76h-299zM573 256l-122 -107h122v107z" />
    <glyph glyph-name="questiondown" unicode="&#xbf;" horiz-adv-x="504" 
d="M12 -51q2 53 34 93q17 21 36 32t38 18.5t36.5 13.5t31 17t22 28.5t9.5 48.5h32v-29q0 -38 -6.5 -77t-26.5 -73q-10 -16 -17 -35t-7 -38t3 -36t11.5 -30t22.5 -21t36 -8q18 0 31.5 9t22.5 23t13 30.5t4 32.5q0 22 -5 44.5t-19 39.5q16 4 31 7t31 3q51 0 83.5 -27t32.5 -80
q0 -48 -21 -83t-54.5 -57.5t-75.5 -33.5t-84 -11q-41 0 -84.5 14t-79 40t-58.5 62.5t-23 82.5zM160 351q0 19 7.5 36.5t20.5 30t30 20t37 7.5q19 0 36.5 -7.5t30.5 -20t20.5 -30t7.5 -36.5q0 -20 -7.5 -37t-20.5 -30t-30.5 -20.5t-36.5 -7.5q-20 0 -37 7.5t-30 20.5
t-20.5 30t-7.5 37z" />
    <glyph glyph-name="AE" unicode="&#xc6;" horiz-adv-x="1372" 
d="M512 0l160 147v38h-267l-46 -57l135 -128h-482l162 131l332 410l-114 125h953v-289l-157 173h-288v-146h142l117 83v-299l-117 83h-142v-140h278l182 186v-317h-848zM672 515l-189 -234h189v234z" />
    <glyph glyph-name="Eth" unicode="&#xd0;" horiz-adv-x="982" 
d="M970 333q0 -72 -28.5 -133.5t-77 -105.5t-112.5 -69t-134 -25h-606l160 147v115h-127v107h127v150l-160 147h611q72 0 135 -24.5t110.5 -68.5t74.5 -105t27 -135zM400 262v-131h183q39 0 63 21.5t37 53.5t17.5 68.5t4.5 66.5q0 34 -10 70.5t-29.5 67.5t-49 51t-68.5 20
h-148v-181h141v-107h-141z" />
    <glyph glyph-name="Oslash" unicode="&#xd8;" horiz-adv-x="873" 
d="M861 314q0 -85 -37.5 -150.5t-98 -110t-136.5 -67.5t-152 -23q-70 0 -138 18.5t-128 56.5l-65 -55l-57 67l53 45q-42 46 -66 101t-24 118q0 84 37 152.5t97.5 117t136.5 75.5t154 27q70 0 137 -20t124 -61l70 60l57 -67l-60 -51q45 -48 70.5 -107.5t25.5 -125.5zM596 340
q0 14 -2 28.5t-5 27.5l-270 -231q20 -32 50 -52.5t69 -20.5q46 0 76 24.5t48 61t26 79t8 78.5v5zM558 485q-20 33 -49.5 58t-70.5 25q-44 0 -74 -25t-49 -61.5t-27.5 -79t-8.5 -77.5q0 -18 1 -36t6 -36z" />
    <glyph glyph-name="Thorn" unicode="&#xde;" horiz-adv-x="806" 
d="M794 338q0 -81 -63 -136q-33 -29 -72.5 -41.5t-82.5 -12.5h-178l156 -148h-540l160 155v354l-162 159h545l-122 -117h106q44 0 89 -15t81.5 -43t59.5 -67.5t23 -87.5zM570 350q0 13 -3.5 28t-10.5 28t-18 21.5t-26 8.5h-120v-173h115q18 0 30 8t19.5 20.5t10.5 28t3 30.5
z" />
    <glyph glyph-name="germandbls" unicode="&#xdf;" horiz-adv-x="724" 
d="M712 181q0 -46 -18 -83.5t-48.5 -64t-70.5 -41t-83 -14.5q-21 0 -41 1t-39 6t-35.5 14.5t-30.5 26.5q-10 12 -16 25.5t-6 29.5q0 22 10.5 38t26.5 26t35.5 15t38.5 5q12 0 23 -3l-4 -21t-2 -21q0 -8 1.5 -20t5.5 -23.5t11 -20t17 -8.5q16 0 25 16t13 37.5t4.5 43
t0.5 32.5q0 27 -6.5 56t-20.5 53t-36.5 39.5t-54.5 15.5h-67v51q66 0 95 31.5t29 97.5q0 19 -5.5 37t-16.5 32.5t-26.5 23.5t-36.5 9q-26 0 -42 -9.5t-26 -25t-13.5 -35.5t-3.5 -42v-511h-287l111 111v404q0 52 25 87t63.5 57t85 31.5t89.5 9.5q36 0 82 -7.5t86 -26
t67.5 -49.5t27.5 -77q0 -35 -16 -60.5t-41 -43.5t-56 -29t-60 -17h16q44 0 84 -15.5t70 -43.5t48 -66.5t18 -83.5z" />
    <glyph glyph-name="ae" unicode="&#xe6;" horiz-adv-x="929" 
d="M565 203q0 -35 13 -60t34.5 -41.5t49 -24.5t57.5 -8q27 0 54 6t51.5 17t45 28t34.5 38q4 -8 5 -18.5t1 -18.5q0 -50 -26 -79.5t-64.5 -45t-82.5 -20.5t-80 -5q-73 0 -141 27t-111 89q-8 -9 -14.5 -19t-14.5 -18q-24 -22 -45.5 -37t-44 -24.5t-48.5 -13.5t-59 -4
q-29 0 -58.5 4.5t-53.5 17.5t-39.5 35.5t-15.5 57.5q0 37 12.5 64t33.5 46t50 31.5t62 19.5l191 40v47q0 14 -8.5 23.5t-20.5 15t-26 7.5t-25 2q-12 0 -27 -3t-28 -9t-22 -16.5t-9 -25.5q0 -11 2 -21.5t8 -20.5q-19 -5 -43 -9t-47 -4q-18 0 -34.5 3t-29 11t-20 21.5
t-7.5 34.5q0 28 15.5 49.5t40.5 37t56.5 26t63.5 16.5t61 8.5t50 2.5q45 0 94 -8t87 -31q35 20 74.5 31t80.5 11q60 0 108.5 -22.5t83 -61.5t54 -90.5t21.5 -108.5h-349zM363 208l-87 -18q-14 -3 -28.5 -7.5t-25.5 -12.5t-18 -19.5t-7 -28.5q0 -26 16.5 -39.5t41.5 -13.5
q19 0 38.5 7t35 20t25 30t9.5 38v44zM758 284q0 45 -23.5 77.5t-71.5 32.5q-47 0 -72 -32.5t-25 -77.5h192z" />
    <glyph glyph-name="eth" unicode="&#xf0;" horiz-adv-x="647" 
d="M635 237q0 -62 -27 -111t-71.5 -83t-100 -52t-112.5 -18q-56 0 -111.5 17.5t-100 51t-72.5 81.5t-28 110q0 57 25 103.5t65.5 80.5t91.5 53.5t104 22.5q-20 16 -41 29.5l-43 26.5l-123 -71l-32 55l87 49q-26 11 -52 20.5t-53 16.5l33 61q45 -6 89 -14.5t88 -22.5l144 83
l32 -55l-98 -56q61 -25 116.5 -60.5t97.5 -82.5t67 -105.5t25 -129.5zM433 235q0 24 -6 52.5t-19.5 53t-34 40.5t-50.5 16t-51 -16t-34 -40.5t-19 -53t-6 -52.5t6 -52.5t19.5 -53t34 -40.5t50.5 -16t50.5 16.5t34 40.5t19.5 52.5t6 52.5z" />
    <glyph glyph-name="oslash" unicode="&#xf8;" horiz-adv-x="643" 
d="M631 230q0 -61 -28 -109t-72 -81.5t-99.5 -51t-110.5 -17.5q-49 0 -96.5 13t-89.5 39l-39 -33l-48 58l28 24q-29 32 -46.5 72.5t-17.5 85.5q0 61 27.5 109.5t71.5 82t99 51.5t111 18q50 0 97.5 -13t89.5 -40l38 33l49 -58l-29 -24q31 -33 48 -73.5t17 -85.5zM429 231
q0 10 -0.5 19.5t-2.5 19.5l-185 -157q14 -20 33.5 -32.5t45.5 -12.5q31 0 52 16t33.5 40t18 52.5t5.5 54.5zM399 346q-14 22 -33.5 35.5t-45.5 13.5q-33 0 -54 -18t-33.5 -44t-17.5 -56.5t-5 -55.5q0 -18 3 -33z" />
    <glyph glyph-name="thorn" unicode="&#xfe;" horiz-adv-x="739" 
d="M727 230q0 -46 -17.5 -91.5t-48 -81.5t-72 -58.5t-88.5 -22.5q-57 0 -95 29.5t-61 78.5v-176l147 -119q-116 1 -231 1h-231l128 118v628l-146 130h333v-283q20 51 60.5 79.5t94.5 28.5q53 0 95 -21.5t71.5 -58t45 -83.5t15.5 -98zM535 232q0 22 -3.5 49t-13 51t-27.5 40
t-47 16q-26 0 -43.5 -17t-28 -41t-14.5 -51t-4 -47t3.5 -47t13.5 -51t27 -41t44 -17q28 0 46.5 16t28.5 40t14 51t4 49z" />
    <glyph glyph-name="dotlessi" unicode="&#x131;" horiz-adv-x="469" 
d="M27 0l123 120v224l-138 134h325v-358l120 -120h-430z" />
    <glyph glyph-name="caron" unicode="&#x2c7;" horiz-adv-x="398" 
d="M279 496h-154l-113 170h188l34 -95l33 95h119z" />
    <glyph glyph-name="ring" unicode="&#x2da;" horiz-adv-x="171" 
d="M158 569q0 -32 -21 -53t-53 -21q-31 0 -52 21.5t-21 52.5q0 30 21.5 51.5t51.5 21.5q31 0 52.5 -21t21.5 -52zM108 569q0 10 -7 16.5t-17 6.5t-16.5 -6.5t-6.5 -16.5t6.5 -17t16.5 -7t17 7t7 17z" />
    <glyph glyph-name="Euro" unicode="&#x20ac;" horiz-adv-x="892" 
d="M793 85q-59 -43 -129.5 -64t-142.5 -21q-69 0 -138.5 19t-128 55t-100.5 87.5t-55 116.5h-87l47 63h28q0 5 -0.5 8.5t-0.5 7.5t0.5 7.5t0.5 8.5h-75l47 63h40q13 61 51.5 112t95 88t127 57.5t148.5 20.5q73 0 143 -21.5t129 -64.5l87 72v-318q-14 47 -45 85t-71.5 65
t-88 41.5t-94.5 14.5q-35 0 -68.5 -9t-62 -27.5t-50.5 -47t-35 -68.5h346l-47 -63h-308q-1 -5 -1 -16v-8t1 -8h295l-47 -63h-239q13 -40 35 -69t50 -47.5t61.5 -27.5t68.5 -9q47 0 94.5 14.5t88.5 41.5t72 65t45 85v-318z" />
    <glyph glyph-name="plus" unicode="+" horiz-adv-x="439" 
d="M174 391v163h91v-163h162v-90h-162v-162h-91v162h-162v90h162z" />
    <glyph glyph-name="less" unicode="&#x3c;" horiz-adv-x="424" 
d="M143 346l269 -117v-99l-400 175v82l400 175v-98z" />
    <glyph glyph-name="equal" unicode="=" horiz-adv-x="439" 
d="M427 320v-90h-415v90h415zM427 462v-90h-415v90h415z" />
    <glyph glyph-name="asciicircum" unicode="^" horiz-adv-x="385" 
d="M151 670h84l138 -316h-98l-82 187l-82 -187h-99z" />
    <glyph glyph-name="asciitilde" unicode="~" horiz-adv-x="537" 
d="M521 354q-33 -33 -67.5 -47t-69.5 -14q-31 0 -61.5 9t-59.5 19.5l-56 19.5t-51 9q-19 0 -38 -7t-38 -27l-64 64q34 34 69 47.5t72 13.5q28 0 58.5 -9t59.5 -19.5t56.5 -19.5t51.5 -9q18 0 36.5 7.5t37.5 26.5z" />
    <glyph glyph-name="logicalnot" unicode="&#xac;" horiz-adv-x="455" 
d="M352 301h-340v90h431v-201h-91v111z" />
    <glyph glyph-name="minus" unicode="&#x2212;" horiz-adv-x="439" 
d="M427 391v-90h-415v90h415z" />
    <glyph glyph-name="divide" unicode="&#xf7;" horiz-adv-x="439" 
d="M427 391v-90h-415v90h415zM220 542q25 0 43 -17.5t18 -43.5t-18 -43.5t-43 -17.5q-26 0 -44 17.5t-18 43.5t18 43.5t44 17.5zM220 273q25 0 43 -18t18 -43q0 -26 -18 -44t-43 -18q-26 0 -44 18t-18 44q0 25 18 43t44 18z" />
    <glyph glyph-name="multiply" unicode="&#xd7;" horiz-adv-x="411" 
d="M206 410l130 130l63 -64l-129 -130l129 -129l-63 -65l-130 130l-130 -130l-64 65l130 129l-130 130l64 64z" />
    <glyph glyph-name="plusminus" unicode="&#xb1;" horiz-adv-x="439" 
d="M174 370v163h91v-163h162v-90h-162v-162h-91v162h-162v90h162zM427 90v-90h-415v90h415z" />
    <glyph glyph-name="degree" unicode="&#xb0;" horiz-adv-x="222" 
d="M111 666q42 0 70.5 -28.5t28.5 -70.5q0 -20 -7.5 -38t-21 -31.5t-31.5 -21.5t-39 -8q-20 0 -38 8t-31.5 21.5t-21.5 31.5t-8 38q0 21 8 39t21.5 31.5t31.5 21t38 7.5zM111 620q-22 0 -37 -15.5t-15 -37.5t15 -37t37 -15t37 15t15 37t-15 37.5t-37 15.5z" />
    <glyph glyph-name="mu" unicode="&#xb5;" horiz-adv-x="550" 
d="M438 158q0 -5 -0.5 -11.5t-0.5 -15.5q0 -14 1.5 -29t5.5 -27.5t12 -21t22 -8.5q11 0 18 6.5t11.5 16.5t6.5 20t3 18h21q-3 -21 -8.5 -42t-16 -37.5t-28 -26.5t-44.5 -10q-42 0 -63.5 28.5t-25.5 69.5q-17 -17 -37 -34.5t-43.5 -31.5t-48.5 -23t-52 -9q-25 0 -47.5 9.5
t-41.5 24.5v-5q0 -13 3 -28.5t10 -40.5q9 -38 9 -52q0 -20 -11 -39t-34 -19q-13 0 -22 5.5t-14.5 14.5t-8 19.5t-2.5 20.5q0 7 1 15t5 18q7 22 11.5 42t7.5 39.5t4.5 39.5t1.5 43v381h86v-307q0 -28 3 -50t12.5 -37.5t26 -23.5t43.5 -8q38 0 75 19.5t63 44.5v362h86v-320z
" />
    <glyph glyph-name="mu" unicode="&#x3bc;" horiz-adv-x="550" 
d="M438 158q0 -5 -0.5 -11.5t-0.5 -15.5q0 -14 1.5 -29t5.5 -27.5t12 -21t22 -8.5q11 0 18 6.5t11.5 16.5t6.5 20t3 18h21q-3 -21 -8.5 -42t-16 -37.5t-28 -26.5t-44.5 -10q-42 0 -63.5 28.5t-25.5 69.5q-17 -17 -37 -34.5t-43.5 -31.5t-48.5 -23t-52 -9q-25 0 -47.5 9.5
t-41.5 24.5v-5q0 -13 3 -28.5t10 -40.5q9 -38 9 -52q0 -20 -11 -39t-34 -19q-13 0 -22 5.5t-14.5 14.5t-8 19.5t-2.5 20.5q0 7 1 15t5 18q7 22 11.5 42t7.5 39.5t4.5 39.5t1.5 43v381h86v-307q0 -28 3 -50t12.5 -37.5t26 -23.5t43.5 -8q38 0 75 19.5t63 44.5v362h86v-320z
" />
    <glyph glyph-name="paragraph" unicode="&#xb6;" horiz-adv-x="664" 
d="M600 666v-32h-45q-24 0 -41 -17t-17 -41v-770h-61v812h-70v-812h-58v344h-36q-53 0 -100 20.5t-82 55.5t-55.5 82t-20.5 100t20.5 100t55.5 82t82 55.5t100 20.5h328z" />
    <glyph glyph-name="florin" unicode="&#x192;" horiz-adv-x="743" 
d="M424 384q0 -8 -1 -13q8 2 15 2q20 0 39 -9t22 -29q10 4 23 6t25 2q29 0 52.5 -14.5t23.5 -44.5q0 -13 -9 -27q-3 -4 -8 -4q-10 0 -10 8q0 3 3 6q5 8 5 17q0 18 -14 29t-35 11q-22 0 -39.5 -6t-29.5 -15t-18.5 -19t-6.5 -18q0 -10 6.5 -19t31.5 -9q16 0 28 4q1 1 3 1
q9 0 9 -10q-2 -16 -10 -29t-20 -23q-27 -21 -63 -21q-20 0 -40 8t-34 25q-14 -17 -34 -25t-41 -8q-35 0 -62 21q-13 10 -21 23t-10 29q0 10 9 10q2 0 3 -1q12 -4 28 -4q26 0 33 9t7 19q0 8 -6.5 18t-19.5 19t-31 15t-40 6q-20 0 -34 -11t-14 -29q0 -10 6 -17q2 -4 2 -6
q0 -8 -10 -8q-4 0 -8 4q-8 13 -8 27q0 30 23 44.5t53 14.5q11 0 24.5 -2t22.5 -6q1 10 7.5 17.5t15.5 12t18.5 6.5t18.5 2q6 0 16 -2v16q0 12 1 22t3 18q5 17 11 17t11 -17q2 -7 4 -22l-17 -21h17v-12.5t-2 -12.5q16 -10 16 -28q0 -16 -8 -23.5t-19 -12.5t-19.5 -10.5
t-8.5 -12.5q0 -9 6.5 -14.5t16 -9.5t20.5 -5.5t20 -1.5t19.5 1.5t20 5.5t15.5 9.5t6 14.5q0 6 -8 12t-19 11t-19 12t-8 24t16 28q-1 6 -1.5 13t-0.5 15q0 12 1 22t3 18q5 17 11 17t11 -17q2 -7 4 -23l-17 -20h18zM439 361q-20 0 -35 -10q-13 -10 -13 -20q0 -13 13 -21
q7 -4 15.5 -6.5t19.5 -2.5t19.5 2.5t15.5 6.5q13 8 13 21q0 10 -13 20q-15 10 -35 10zM304 361q-20 0 -35 -10q-13 -10 -13 -20q0 -13 13 -21q7 -4 15.5 -6.5t19.5 -2.5t20 2.5t16 6.5q13 8 13 21q0 10 -13 20q-15 10 -36 10zM435 242q-13 -11 -31 -15t-32 -4t-32 4t-31 15
q-28 -22 -65 -22h-9.5t-9.5 1q9 -21 29.5 -31.5t42.5 -10.5q20 0 38 8.5t29 25.5q3 4 8 4t8 -4q10 -17 28.5 -25.5t37.5 -8.5q22 0 42.5 10.5t28.5 31.5q-5 -1 -18 -1q-17 0 -33.5 5.5t-30.5 16.5zM301 498q-48 -11 -80 -34t-32 -66q0 -7 1.5 -13.5t1.5 -14.5q0 -9 -10 -9
q-7 0 -8 8q-3 15 -3 29q0 32 12 60t34 51q-17 11 -30 27t-18 38q0 9 9 9q7 0 9 -8q7 -29 32.5 -45.5t54.5 -16.5q27 0 52 14.5t33 41.5q3 6 9 6q7 0 9 -6q9 -27 34 -41.5t51 -14.5q29 0 55 16.5t33 45.5q0 4 3 6t5 2q9 0 9 -12q-4 -19 -15.5 -33.5t-27.5 -25.5
q23 -23 35.5 -52.5t12.5 -61.5q0 -14 -3 -29q-1 -8 -8 -8q-10 0 -10 12q3 12 3 25q0 46 -27.5 68t-69.5 30q-26 4 -50.5 15t-38.5 34q-11 -19 -28.5 -30.5t-38.5 -16.5zM650 93q-23 -24 -54 -37.5t-65 -13.5q-37 -20 -79 -20h-10q-34 -16 -70 -16t-71 16h-10q-42 0 -79 20
q-34 0 -65 13.5t-53 37.5q-33 23 -57.5 56.5t-24.5 75.5q0 32 14.5 59t36.5 48q-11 21 -17.5 44t-6.5 46q0 51 26.5 96t72.5 79q45 32 105 51.5t129 19.5q68 0 128 -19.5t105 -51.5q46 -34 72.5 -79t26.5 -96q0 -23 -6 -46t-17 -44q22 -21 36 -48t14 -59q0 -42 -24.5 -75.5
t-56.5 -56.5zM561 64q21 4 40.5 14.5t34 26.5t23 36t8.5 43q0 39 -24 69q-2 4 -2 5q0 10 9 10q4 0 8 -4q13 -17 20 -38t7 -42q0 -22 -6 -41q15 17 24.5 38t9.5 44q0 29 -14.5 54t-35.5 45q-3 3 -3 6q0 1 2 5q11 20 17.5 42t6.5 45q0 48 -24.5 88.5t-67.5 71.5
q-43 32 -99.5 50t-122.5 18t-123 -18t-100 -50q-42 -31 -66.5 -71.5t-24.5 -88.5q0 -47 24 -87q1 -1 1 -4q0 -6 -3 -7q-20 -20 -34.5 -45t-14.5 -54q0 -23 9.5 -44t23.5 -38l-4 20t-2 21q0 44 28 80q4 4 8 4q8 0 8 -10q0 -3 -2 -5q-23 -31 -23 -69q0 -23 8.5 -43t22.5 -36
t33.5 -26.5t40.5 -14.5q-20 19 -32.5 44t-12.5 55q0 46 30 84q4 4 8 4q9 0 9 -9q0 -3 -3 -6q-12 -16 -19 -34.5t-7 -38.5q0 -24 9.5 -45t25 -37t36.5 -26t44 -13q-24 19 -38.5 46t-14.5 59q0 5 3 7.5t6 2.5q10 0 10 -10q0 -27 11.5 -49.5t30.5 -39t43.5 -25.5t50.5 -9
t50.5 9t43.5 25.5t30.5 39t11.5 49.5q0 10 9 10t9 -10q0 -32 -14.5 -59t-38.5 -46q23 3 44 13t36.5 26t25 37t9.5 45q0 41 -26 73q-2 4 -2 6q0 9 9 9q4 0 7 -4q31 -37 31 -84q0 -30 -13 -55t-33 -44z" />
    <glyph glyph-name="section" unicode="&#xa7;" horiz-adv-x="1243" 
d="M1231 660v-286h-83v201h-49v85h132zM947 307q-9 0 -9 -9q0 -8 9 -8h168v-41h-168q-9 0 -9 -8q0 -9 9 -9h168v-41h-168q-20 0 -34.5 14.5t-14.5 35.5q0 16 9 28q-9 12 -9 29q0 20 14.5 34.5t34.5 14.5h168v-40h-168zM346 290v-41h-176v-58h-41v107q0 20 14.5 34.5
t34.5 14.5h168v-40h-168q-8 0 -8 -9v-8h176zM384 347h229v-54q0 -24 -16.5 -41.5t-39.5 -20.5l37 -40h-54l-38 40h-58v41h107q9 0 15 6t6 15v13h-147v-115h-41v156zM696 307q-9 0 -9 -9q0 -8 9 -8h168v-41h-168q-9 0 -9 -8q0 -9 9 -9h168v-41h-168q-21 0 -35.5 14.5
t-14.5 35.5q0 15 10 28q-10 13 -10 29q0 20 14.5 34.5t35.5 14.5h168v-40h-168zM984 165v-41h-114v-75h48v-40h-89v115h-70v41h225zM1154 49q19 0 32 18h-174v20q0 16 6 30.5t16.5 25t24.5 16.5t30 6h142v-41h-142q-20 0 -31 -17h173v-20q0 -32 -22.5 -55t-54.5 -23h-142v40
h142zM229 107v-40h-176v-58h-41v107q0 20 14.5 34.5t34.5 14.5h168v-41h-168q-8 0 -8 -8v-9h176zM725 9h-59q-8 27 -21 47.5t-36 38.5q-14 11 -30 18t-33 9v-113h-41v155h23q28 0 55.5 -10t50.5 -27q31 -26 51 -60v98h40v-156zM468 164v-71q0 -35 -24 -59.5t-59 -24.5h-132
v72q0 34 24.5 58.5t59.5 24.5h131zM337 124q-18 0 -31 -13t-13 -30v-32h92q18 0 30.5 13t12.5 31v31h-91zM145 660v-286h-84v201h-49v85h133zM1042 660v-133q0 -32 -12.5 -59.5t-33.5 -48.5t-49 -33t-59 -12h-237v132q0 32 12 60t32.5 49t48.5 33t60 12h238zM804 575
q-29 0 -49 -20t-20 -49v-48h153q29 0 49 20t20 49v48h-153zM593 660v-133q0 -32 -12 -59.5t-33 -48.5t-49 -33t-59 -12h-237v132q0 32 12 60t33 49t48.5 33t59.5 12h237zM356 575q-29 0 -49 -20t-20 -49v-48h153q29 0 49 20t20 49v48h-153z" />
    <glyph glyph-name="Agrave" unicode="&#xc0;" 
d="M439 0l146 133l-22 48h-258l-18 -43l130 -138h-405l123 157l192 393l-109 116h528l-109 -116l180 -380l175 -170h-553zM431 472l-79 -183h162zM423 684l-150 170h197l50 -170h-97z" />
    <glyph glyph-name="Aacute" unicode="&#xc1;" 
d="M439 0l146 133l-22 48h-258l-18 -43l130 -138h-405l123 157l192 393l-109 116h528l-109 -116l180 -380l175 -170h-553zM431 472l-79 -183h162zM509 684h-97l50 171h197z" />
    <glyph glyph-name="Acircumflex" unicode="&#xc2;" 
d="M439 0l146 133l-22 48h-258l-18 -43l130 -138h-405l123 157l192 393l-109 116h528l-109 -116l180 -380l175 -170h-553zM431 472l-79 -183h162zM501 684l-34 96l-33 -96h-119l107 171h154l113 -171h-188z" />
    <glyph glyph-name="Atilde" unicode="&#xc3;" 
d="M439 0l146 133l-22 48h-258l-18 -43l130 -138h-405l123 157l192 393l-109 116h528l-109 -116l180 -380l175 -170h-553zM431 472l-79 -183h162zM704 853q-3 -30 -11 -60t-23.5 -55t-40.5 -40.5t-61 -15.5q-26 0 -51.5 11t-50.5 24.5t-48.5 24.5t-45.5 11q-17 0 -25 -5
t-11.5 -13.5t-5 -18t-5.5 -18.5h-26q0 26 9.5 55.5t27.5 54t43.5 41t58.5 16.5q24 0 46.5 -11.5t44 -25t43 -24.5t45.5 -11q29 0 41.5 18.5t19.5 41.5h26z" />
    <glyph glyph-name="Adieresis" unicode="&#xc4;" 
d="M439 0l146 133l-22 48h-258l-18 -43l130 -138h-405l123 157l192 393l-109 116h528l-109 -116l180 -380l175 -170h-553zM431 472l-79 -183h162zM492 735q0 -21 -15 -36t-36 -15q-22 0 -37 14.5t-15 36.5t15 36.5t37 14.5q21 0 36 -15t15 -36zM615 735q0 -21 -15 -36
t-36 -15q-22 0 -37 14.5t-15 36.5t15 36.5t37 14.5q21 0 36 -15t15 -36z" />
    <glyph glyph-name="Aring" unicode="&#xc5;" 
d="M439 0l146 133l-22 48h-258l-18 -43l130 -138h-405l123 157l192 393l-109 116h528l-109 -116l180 -380l175 -170h-553zM431 472l-79 -183h162zM559 730q0 -32 -21 -53t-53 -21q-31 0 -52 21.5t-21 52.5q0 30 21.5 51.5t51.5 21.5q31 0 52.5 -21t21.5 -52zM509 730
q0 10 -7 16.5t-17 6.5t-16.5 -6.5t-6.5 -16.5t6.5 -17t16.5 -7t17 7t7 17z" />
    <glyph glyph-name="Ccedilla" unicode="&#xc7;" horiz-adv-x="843" 
d="M805 358q-13 47 -43.5 85t-71.5 64.5t-89 40.5t-96 14q-44 0 -84.5 -13t-71.5 -40.5t-49.5 -70t-18.5 -102.5q0 -58 22.5 -102.5t59 -74.5t83.5 -45.5t96 -15.5q45 0 87.5 13t77 40t58 68t28.5 97q21 -17 29.5 -41t8.5 -50q0 -68 -33.5 -116.5t-87.5 -80t-122.5 -46.5
t-137.5 -15q-51 0 -103.5 11t-101 32.5t-91 52.5t-74 71t-50 88.5t-18.5 105.5q0 78 37.5 144t99 114.5t139 76t158.5 27.5q73 0 143 -21.5t130 -64.5l86 72v-318v0zM544 -125q0 -24 -13 -43t-33 -32t-43.5 -19.5t-44.5 -6.5q-18 0 -38.5 4.5t-37 14.5t-27.5 26t-11 38
q0 15 10.5 25.5t25.5 10.5q7 0 13.5 -1t11.5 -6q-2 -6 -3 -12t-1 -12q0 -21 10 -37.5t33 -16.5q14 0 24 7.5t16 19t8.5 25t2.5 24.5q0 26 -12.5 43t-39.5 17q-25 0 -48 -13q17 26 37 36.5t51 10.5q48 0 78.5 -26.5t30.5 -76.5z" />
    <glyph glyph-name="Egrave" unicode="&#xc8;" horiz-adv-x="912" 
d="M12 0l160 147v372l-160 147h873v-289l-157 173h-327v-146h181l117 83v-299l-117 83h-181v-140h317l182 186v-317h-888zM482 684l-150 170h197l50 -170h-97z" />
    <glyph glyph-name="Eacute" unicode="&#xc9;" horiz-adv-x="912" 
d="M12 0l160 147v372l-160 147h873v-289l-157 173h-327v-146h181l117 83v-299l-117 83h-181v-140h317l182 186v-317h-888zM512 684h-97l50 171h197z" />
    <glyph glyph-name="Ecircumflex" unicode="&#xca;" horiz-adv-x="912" 
d="M12 0l160 147v372l-160 147h873v-289l-157 173h-327v-146h181l117 83v-299l-117 83h-181v-140h317l182 186v-317h-888zM495 684l-34 96l-33 -96h-119l107 171h154l113 -171h-188z" />
    <glyph glyph-name="Edieresis" unicode="&#xcb;" horiz-adv-x="912" 
d="M12 0l160 147v372l-160 147h873v-289l-157 173h-327v-146h181l117 83v-299l-117 83h-181v-140h317l182 186v-317h-888zM477 735q0 -21 -15 -36t-36 -15q-22 0 -37 14.5t-15 36.5t15 36.5t37 14.5q21 0 36 -15t15 -36zM600 735q0 -21 -15 -36t-36 -15q-22 0 -37 14.5
t-15 36.5t15 36.5t37 14.5q21 0 36 -15t15 -36z" />
    <glyph glyph-name="Igrave" unicode="&#xcc;" horiz-adv-x="565" 
d="M12 0l160 147v372l-160 147h541l-160 -147v-372l160 -147h-541zM237 684l-150 170h197l50 -170h-97z" />
    <glyph glyph-name="Iacute" unicode="&#xcd;" horiz-adv-x="565" 
d="M12 0l160 147v372l-160 147h541l-160 -147v-372l160 -147h-541zM325 684h-97l50 171h197z" />
    <glyph glyph-name="Icircumflex" unicode="&#xce;" horiz-adv-x="565" 
d="M12 0l160 147v372l-160 147h541l-160 -147v-372l160 -147h-541zM281 684l-34 96l-33 -96h-119l107 171h154l113 -171h-188z" />
    <glyph glyph-name="Idieresis" unicode="&#xcf;" horiz-adv-x="565" 
d="M12 0l160 147v372l-160 147h541l-160 -147v-372l160 -147h-541zM272 735q0 -21 -15 -36t-36 -15q-22 0 -37 14.5t-15 36.5t15 36.5t37 14.5q21 0 36 -15t15 -36zM395 735q0 -21 -15 -36t-36 -15q-22 0 -37 14.5t-15 36.5t15 36.5t37 14.5q21 0 36 -15t15 -36z" />
    <glyph glyph-name="Ntilde" unicode="&#xd1;" horiz-adv-x="993" 
d="M818 512v-512h-233l-284 382v-229l167 -153h-456l163 153v359l-159 154h394l280 -360v206l-167 154h458zM698 853q-3 -30 -11 -60t-23.5 -55t-40.5 -40.5t-61 -15.5q-26 0 -51.5 11t-50.5 24.5t-48.5 24.5t-45.5 11q-17 0 -25 -5t-11.5 -13.5t-5 -18t-5.5 -18.5h-26
q0 26 9.5 55.5t27.5 54t43.5 41t58.5 16.5q24 0 46.5 -11.5t44 -25t43 -24.5t45.5 -11q29 0 41.5 18.5t19.5 41.5h26z" />
    <glyph glyph-name="Ograve" unicode="&#xd2;" horiz-adv-x="872" 
d="M860 318q0 -85 -37.5 -150.5t-98 -110t-136.5 -67.5t-152 -23q-77 0 -152.5 23t-136 68t-98 110.5t-37.5 149.5t37 152.5t97 117t136 75.5t154 27t154 -26.5t136 -75.5t97 -117.5t37 -152.5zM595 329q0 35 -8.5 77.5t-27.5 79t-49 61.5t-73 25q-44 0 -74 -25t-49 -61.5
t-27.5 -79t-8.5 -77.5q0 -36 8.5 -76.5t27 -75.5t49 -58t74.5 -23t74 23t49 58t27 75.5t8 76.5zM408 714l-150 170h197l50 -170h-97z" />
    <glyph glyph-name="Oacute" unicode="&#xd3;" horiz-adv-x="872" 
d="M860 318q0 -85 -37.5 -150.5t-98 -110t-136.5 -67.5t-152 -23q-77 0 -152.5 23t-136 68t-98 110.5t-37.5 149.5t37 152.5t97 117t136 75.5t154 27t154 -26.5t136 -75.5t97 -117.5t37 -152.5zM595 329q0 35 -8.5 77.5t-27.5 79t-49 61.5t-73 25q-44 0 -74 -25t-49 -61.5
t-27.5 -79t-8.5 -77.5q0 -36 8.5 -76.5t27 -75.5t49 -58t74.5 -23t74 23t49 58t27 75.5t8 76.5zM465 719h-97l50 171h197z" />
    <glyph glyph-name="Ocircumflex" unicode="&#xd4;" horiz-adv-x="872" 
d="M860 318q0 -85 -37.5 -150.5t-98 -110t-136.5 -67.5t-152 -23q-77 0 -152.5 23t-136 68t-98 110.5t-37.5 149.5t37 152.5t97 117t136 75.5t154 27t154 -26.5t136 -75.5t97 -117.5t37 -152.5zM595 329q0 35 -8.5 77.5t-27.5 79t-49 61.5t-73 25q-44 0 -74 -25t-49 -61.5
t-27.5 -79t-8.5 -77.5q0 -36 8.5 -76.5t27 -75.5t49 -58t74.5 -23t74 23t49 58t27 75.5t8 76.5zM447 718l-34 96l-33 -96h-119l107 171h154l113 -171h-188z" />
    <glyph glyph-name="Otilde" unicode="&#xd5;" horiz-adv-x="872" 
d="M860 318q0 -85 -37.5 -150.5t-98 -110t-136.5 -67.5t-152 -23q-77 0 -152.5 23t-136 68t-98 110.5t-37.5 149.5t37 152.5t97 117t136 75.5t154 27t154 -26.5t136 -75.5t97 -117.5t37 -152.5zM595 329q0 35 -8.5 77.5t-27.5 79t-49 61.5t-73 25q-44 0 -74 -25t-49 -61.5
t-27.5 -79t-8.5 -77.5q0 -36 8.5 -76.5t27 -75.5t49 -58t74.5 -23t74 23t49 58t27 75.5t8 76.5zM646 889q-3 -30 -11 -60t-23.5 -55t-40.5 -40.5t-61 -15.5q-26 0 -51.5 11t-50.5 24.5t-48.5 24.5t-45.5 11q-17 0 -25 -5t-11.5 -13.5t-5 -18t-5.5 -18.5h-26q0 26 9.5 55.5
t27.5 54t43.5 41t58.5 16.5q24 0 46.5 -11.5t44 -25t43 -24.5t45.5 -11q29 0 41.5 18.5t19.5 41.5h26z" />
    <glyph glyph-name="Odieresis" unicode="&#xd6;" horiz-adv-x="872" 
d="M860 318q0 -85 -37.5 -150.5t-98 -110t-136.5 -67.5t-152 -23q-77 0 -152.5 23t-136 68t-98 110.5t-37.5 149.5t37 152.5t97 117t136 75.5t154 27t154 -26.5t136 -75.5t97 -117.5t37 -152.5zM595 329q0 35 -8.5 77.5t-27.5 79t-49 61.5t-73 25q-44 0 -74 -25t-49 -61.5
t-27.5 -79t-8.5 -77.5q0 -36 8.5 -76.5t27 -75.5t49 -58t74.5 -23t74 23t49 58t27 75.5t8 76.5zM417 769q0 -21 -15 -36t-36 -15q-22 0 -37 14.5t-15 36.5t15 36.5t37 14.5q21 0 36 -15t15 -36zM540 769q0 -21 -15 -36t-36 -15q-22 0 -37 14.5t-15 36.5t15 36.5t37 14.5
q21 0 36 -15t15 -36z" />
    <glyph glyph-name="Scaron" unicode="&#x160;" horiz-adv-x="761" 
d="M749 202q0 -62 -27 -106t-69.5 -72.5t-96 -42t-107.5 -13.5q-35 0 -74 5t-78 14.5t-76 23.5t-68 31l-118 -72v342q28 -62 76 -104.5t106.5 -69.5t123.5 -39t128 -12q11 0 28 3t33 9.5t27.5 16.5t11.5 24q0 16 -10 25.5t-24.5 14.5t-30 6.5t-25.5 3.5q-46 7 -98.5 12
t-104.5 14t-99.5 25t-84 44.5t-58.5 71.5t-22 107q0 57 22 101t59 74.5t85.5 46t101.5 15.5q67 0 138 -12.5t129 -48.5l117 56v-281q-81 91 -183 130t-222 39q-11 0 -26.5 -2.5t-29 -8.5t-23 -16t-9.5 -25q0 -22 14 -32.5t27 -12.5q57 -11 115.5 -18.5l116.5 -15.5l49 -7
q51 -8 97.5 -25t82 -46.5t56 -72t20.5 -100.5zM441 726h-154l-113 170h188l34 -95l33 95h119z" />
    <glyph glyph-name="Ugrave" unicode="&#xd9;" horiz-adv-x="1029" 
d="M852 510v-331q0 -52 -23 -90.5t-66 -64.5q-54 -34 -120.5 -45t-128.5 -11q-65 0 -126 16t-114 54q-45 32 -72.5 73.5t-27.5 97.5v304l-162 154q21 1 42 1h42h253q51 0 101.5 -0.5t101.5 -0.5l-146 -150v-304q0 -30 15.5 -51.5t38.5 -36t51 -21t54 -6.5t54.5 6.5t52.5 20
t39.5 35.5t15.5 53v303l-147 151q42 0 82.5 0.5t81.5 0.5h205h34t34 -1zM496 684l-150 170h197l50 -170h-97z" />
    <glyph glyph-name="Uacute" unicode="&#xda;" horiz-adv-x="1029" 
d="M852 510v-331q0 -52 -23 -90.5t-66 -64.5q-54 -34 -120.5 -45t-128.5 -11q-65 0 -126 16t-114 54q-45 32 -72.5 73.5t-27.5 97.5v304l-162 154q21 1 42 1h42h253q51 0 101.5 -0.5t101.5 -0.5l-146 -150v-304q0 -30 15.5 -51.5t38.5 -36t51 -21t54 -6.5t54.5 6.5t52.5 20
t39.5 35.5t15.5 53v303l-147 151q42 0 82.5 0.5t81.5 0.5h205h34t34 -1zM556 684h-97l50 171h197z" />
    <glyph glyph-name="Ucircumflex" unicode="&#xdb;" horiz-adv-x="1029" 
d="M852 510v-331q0 -52 -23 -90.5t-66 -64.5q-54 -34 -120.5 -45t-128.5 -11q-65 0 -126 16t-114 54q-45 32 -72.5 73.5t-27.5 97.5v304l-162 154q21 1 42 1h42h253q51 0 101.5 -0.5t101.5 -0.5l-146 -150v-304q0 -30 15.5 -51.5t38.5 -36t51 -21t54 -6.5t54.5 6.5t52.5 20
t39.5 35.5t15.5 53v303l-147 151q42 0 82.5 0.5t81.5 0.5h205h34t34 -1zM513 684l-34 96l-33 -96h-119l107 171h154l113 -171h-188z" />
    <glyph glyph-name="Udieresis" unicode="&#xdc;" horiz-adv-x="1029" 
d="M852 510v-331q0 -52 -23 -90.5t-66 -64.5q-54 -34 -120.5 -45t-128.5 -11q-65 0 -126 16t-114 54q-45 32 -72.5 73.5t-27.5 97.5v304l-162 154q21 1 42 1h42h253q51 0 101.5 -0.5t101.5 -0.5l-146 -150v-304q0 -30 15.5 -51.5t38.5 -36t51 -21t54 -6.5t54.5 6.5t52.5 20
t39.5 35.5t15.5 53v303l-147 151q42 0 82.5 0.5t81.5 0.5h205h34t34 -1zM534 735q0 -21 -15 -36t-36 -15q-22 0 -37 14.5t-15 36.5t15 36.5t37 14.5q21 0 36 -15t15 -36zM657 735q0 -21 -15 -36t-36 -15q-22 0 -37 14.5t-15 36.5t15 36.5t37 14.5q21 0 36 -15t15 -36z" />
    <glyph glyph-name="Yacute" unicode="&#xdd;" horiz-adv-x="969" 
d="M811 536l-209 -297v-85l168 -154h-553l162 154v89l-219 308l-148 116h525l-107 -116l121 -166l118 171l-114 111h402zM540 684h-97l50 171h197z" />
    <glyph glyph-name="Ydieresis" unicode="&#x178;" horiz-adv-x="969" 
d="M811 536l-209 -297v-85l168 -154h-553l162 154v89l-219 308l-148 116h525l-107 -116l121 -166l118 171l-114 111h402zM521 735q0 -21 -15 -36t-36 -15q-22 0 -37 14.5t-15 36.5t15 36.5t37 14.5q21 0 36 -15t15 -36zM644 735q0 -21 -15 -36t-36 -15q-22 0 -37 14.5
t-15 36.5t15 36.5t37 14.5q21 0 36 -15t15 -36z" />
    <glyph glyph-name="Zcaron" unicode="&#x17d;" horiz-adv-x="807" 
d="M391 131h238l151 239v-370h-768l408 551h-205l-146 -195v311h726zM483 684h-154l-113 170h188l34 -95l33 95h119z" />
    <glyph glyph-name="agrave" unicode="&#xe0;" horiz-adv-x="662" 
d="M650 86q0 -30 -12.5 -50.5t-32.5 -34t-45 -19.5t-51 -6q-24 0 -47.5 5.5t-42 18t-30.5 31.5t-15 46q-12 -29 -33.5 -48t-48 -31t-56 -17t-57.5 -5q-29 0 -58.5 5t-53.5 18t-39.5 35.5t-15.5 57.5q0 37 12.5 64t33.5 46t50 31t62 19l191 41v47q0 15 -8.5 24t-20.5 14.5
t-26 7.5t-25 2q-12 0 -27 -3t-28 -9.5t-22 -17t-9 -25.5q0 -12 2 -21t8 -20q-27 -5 -53 -12t-54 -7q-42 0 -58 18.5t-16 57.5q0 28 15.5 49.5t40.5 37t56.5 26t63.5 16.5t61 8.5t50 2.5q30 0 70.5 -5t77.5 -19.5t63 -39.5t26 -65v-223q0 -6 0.5 -17t3.5 -21.5t8.5 -18.5
t14.5 -8t14.5 6.5t8 15.5t3.5 19t1 16q0 11 -1 24t-6 22q33 -9 44 -34t11 -55zM363 214l-87 -19q-14 -3 -28 -7.5t-25.5 -12t-18.5 -19t-7 -28.5q0 -26 17.5 -40t42.5 -14q19 0 38 7.5t34 21t24.5 30.5t9.5 37v44zM274 507l-150 170h197l50 -170h-97z" />
    <glyph glyph-name="aacute" unicode="&#xe1;" horiz-adv-x="662" 
d="M650 86q0 -30 -12.5 -50.5t-32.5 -34t-45 -19.5t-51 -6q-24 0 -47.5 5.5t-42 18t-30.5 31.5t-15 46q-12 -29 -33.5 -48t-48 -31t-56 -17t-57.5 -5q-29 0 -58.5 5t-53.5 18t-39.5 35.5t-15.5 57.5q0 37 12.5 64t33.5 46t50 31t62 19l191 41v47q0 15 -8.5 24t-20.5 14.5
t-26 7.5t-25 2q-12 0 -27 -3t-28 -9.5t-22 -17t-9 -25.5q0 -12 2 -21t8 -20q-27 -5 -53 -12t-54 -7q-42 0 -58 18.5t-16 57.5q0 28 15.5 49.5t40.5 37t56.5 26t63.5 16.5t61 8.5t50 2.5q30 0 70.5 -5t77.5 -19.5t63 -39.5t26 -65v-223q0 -6 0.5 -17t3.5 -21.5t8.5 -18.5
t14.5 -8t14.5 6.5t8 15.5t3.5 19t1 16q0 11 -1 24t-6 22q33 -9 44 -34t11 -55zM363 214l-87 -19q-14 -3 -28 -7.5t-25.5 -12t-18.5 -19t-7 -28.5q0 -26 17.5 -40t42.5 -14q19 0 38 7.5t34 21t24.5 30.5t9.5 37v44zM328 509h-97l50 171h197z" />
    <glyph glyph-name="acircumflex" unicode="&#xe2;" horiz-adv-x="662" 
d="M650 86q0 -30 -12.5 -50.5t-32.5 -34t-45 -19.5t-51 -6q-24 0 -47.5 5.5t-42 18t-30.5 31.5t-15 46q-12 -29 -33.5 -48t-48 -31t-56 -17t-57.5 -5q-29 0 -58.5 5t-53.5 18t-39.5 35.5t-15.5 57.5q0 37 12.5 64t33.5 46t50 31t62 19l191 41v47q0 15 -8.5 24t-20.5 14.5
t-26 7.5t-25 2q-12 0 -27 -3t-28 -9.5t-22 -17t-9 -25.5q0 -12 2 -21t8 -20q-27 -5 -53 -12t-54 -7q-42 0 -58 18.5t-16 57.5q0 28 15.5 49.5t40.5 37t56.5 26t63.5 16.5t61 8.5t50 2.5q30 0 70.5 -5t77.5 -19.5t63 -39.5t26 -65v-223q0 -6 0.5 -17t3.5 -21.5t8.5 -18.5
t14.5 -8t14.5 6.5t8 15.5t3.5 19t1 16q0 11 -1 24t-6 22q33 -9 44 -34t11 -55zM363 214l-87 -19q-14 -3 -28 -7.5t-25.5 -12t-18.5 -19t-7 -28.5q0 -26 17.5 -40t42.5 -14q19 0 38 7.5t34 21t24.5 30.5t9.5 37v44zM330 510l-34 96l-33 -96h-119l107 171h154l113 -171h-188z
" />
    <glyph glyph-name="atilde" unicode="&#xe3;" horiz-adv-x="662" 
d="M650 86q0 -30 -12.5 -50.5t-32.5 -34t-45 -19.5t-51 -6q-24 0 -47.5 5.5t-42 18t-30.5 31.5t-15 46q-12 -29 -33.5 -48t-48 -31t-56 -17t-57.5 -5q-29 0 -58.5 5t-53.5 18t-39.5 35.5t-15.5 57.5q0 37 12.5 64t33.5 46t50 31t62 19l191 41v47q0 15 -8.5 24t-20.5 14.5
t-26 7.5t-25 2q-12 0 -27 -3t-28 -9.5t-22 -17t-9 -25.5q0 -12 2 -21t8 -20q-27 -5 -53 -12t-54 -7q-42 0 -58 18.5t-16 57.5q0 28 15.5 49.5t40.5 37t56.5 26t63.5 16.5t61 8.5t50 2.5q30 0 70.5 -5t77.5 -19.5t63 -39.5t26 -65v-223q0 -6 0.5 -17t3.5 -21.5t8.5 -18.5
t14.5 -8t14.5 6.5t8 15.5t3.5 19t1 16q0 11 -1 24t-6 22q33 -9 44 -34t11 -55zM363 214l-87 -19q-14 -3 -28 -7.5t-25.5 -12t-18.5 -19t-7 -28.5q0 -26 17.5 -40t42.5 -14q19 0 38 7.5t34 21t24.5 30.5t9.5 37v44zM533 673q-3 -30 -11 -60t-23.5 -55t-40.5 -40.5t-61 -15.5
q-26 0 -51.5 11t-50.5 24.5t-48.5 24.5t-45.5 11q-17 0 -25 -5t-11.5 -13.5t-5 -18t-5.5 -18.5h-26q0 26 9.5 55.5t27.5 54t43.5 41t58.5 16.5q24 0 46.5 -11.5t44 -25t43 -24.5t45.5 -11q29 0 41.5 18.5t19.5 41.5h26z" />
    <glyph glyph-name="adieresis" unicode="&#xe4;" horiz-adv-x="662" 
d="M650 86q0 -30 -12.5 -50.5t-32.5 -34t-45 -19.5t-51 -6q-24 0 -47.5 5.5t-42 18t-30.5 31.5t-15 46q-12 -29 -33.5 -48t-48 -31t-56 -17t-57.5 -5q-29 0 -58.5 5t-53.5 18t-39.5 35.5t-15.5 57.5q0 37 12.5 64t33.5 46t50 31t62 19l191 41v47q0 15 -8.5 24t-20.5 14.5
t-26 7.5t-25 2q-12 0 -27 -3t-28 -9.5t-22 -17t-9 -25.5q0 -12 2 -21t8 -20q-27 -5 -53 -12t-54 -7q-42 0 -58 18.5t-16 57.5q0 28 15.5 49.5t40.5 37t56.5 26t63.5 16.5t61 8.5t50 2.5q30 0 70.5 -5t77.5 -19.5t63 -39.5t26 -65v-223q0 -6 0.5 -17t3.5 -21.5t8.5 -18.5
t14.5 -8t14.5 6.5t8 15.5t3.5 19t1 16q0 11 -1 24t-6 22q33 -9 44 -34t11 -55zM363 214l-87 -19q-14 -3 -28 -7.5t-25.5 -12t-18.5 -19t-7 -28.5q0 -26 17.5 -40t42.5 -14q19 0 38 7.5t34 21t24.5 30.5t9.5 37v44zM321 556q0 -21 -15 -36t-36 -15q-22 0 -37 14.5t-15 36.5
t15 36.5t37 14.5q21 0 36 -15t15 -36zM444 556q0 -21 -15 -36t-36 -15q-22 0 -37 14.5t-15 36.5t15 36.5t37 14.5q21 0 36 -15t15 -36z" />
    <glyph glyph-name="aring" unicode="&#xe5;" horiz-adv-x="662" 
d="M650 86q0 -30 -12.5 -50.5t-32.5 -34t-45 -19.5t-51 -6q-24 0 -47.5 5.5t-42 18t-30.5 31.5t-15 46q-12 -29 -33.5 -48t-48 -31t-56 -17t-57.5 -5q-29 0 -58.5 5t-53.5 18t-39.5 35.5t-15.5 57.5q0 37 12.5 64t33.5 46t50 31t62 19l191 41v47q0 15 -8.5 24t-20.5 14.5
t-26 7.5t-25 2q-12 0 -27 -3t-28 -9.5t-22 -17t-9 -25.5q0 -12 2 -21t8 -20q-27 -5 -53 -12t-54 -7q-42 0 -58 18.5t-16 57.5q0 28 15.5 49.5t40.5 37t56.5 26t63.5 16.5t61 8.5t50 2.5q30 0 70.5 -5t77.5 -19.5t63 -39.5t26 -65v-223q0 -6 0.5 -17t3.5 -21.5t8.5 -18.5
t14.5 -8t14.5 6.5t8 15.5t3.5 19t1 16q0 11 -1 24t-6 22q33 -9 44 -34t11 -55zM363 214l-87 -19q-14 -3 -28 -7.5t-25.5 -12t-18.5 -19t-7 -28.5q0 -26 17.5 -40t42.5 -14q19 0 38 7.5t34 21t24.5 30.5t9.5 37v44zM404 569q0 -32 -21 -53t-53 -21q-31 0 -52 21.5t-21 52.5
q0 30 21.5 51.5t51.5 21.5q31 0 52.5 -21t21.5 -52zM354 569q0 10 -7 16.5t-17 6.5t-16.5 -6.5t-6.5 -16.5t6.5 -17t16.5 -7t17 7t7 17z" />
    <glyph glyph-name="ccedilla" unicode="&#xe7;" horiz-adv-x="570" 
d="M557 349q0 -38 -27 -59.5t-63 -21.5q-14 0 -27 2.5t-24 10.5q2 8 3 16.5t1 16.5q0 45 -26.5 64.5t-68.5 19.5q-33 0 -56 -14t-37 -36t-20 -50t-6 -55q0 -32 8 -62t26.5 -53t48 -36.5t72.5 -13.5q25 0 51 5.5t48 18t38 32t22 47.5q3 14 4 27t1 27q15 -16 24 -38t9 -44
q0 -52 -23.5 -86.5t-60.5 -55.5t-82 -29.5t-87 -8.5q-54 0 -106.5 17.5t-94 50t-67 79t-25.5 105.5q0 62 25.5 111t69 83t101.5 52t122 18q30 0 69.5 -7.5t74.5 -24.5t59 -43.5t24 -64.5zM409 -114q0 -24 -13 -43t-33 -32t-43.5 -19.5t-44.5 -6.5q-18 0 -38.5 4.5t-37 14.5
t-27.5 26t-11 38q0 15 10.5 25.5t25.5 10.5q7 0 13.5 -1t11.5 -6q-2 -6 -3 -12t-1 -12q0 -21 10 -37.5t33 -16.5q14 0 24 7.5t16 19t8.5 25t2.5 24.5q0 26 -12.5 43t-39.5 17q-25 0 -48 -13q17 26 37 36.5t51 10.5q48 0 78.5 -26.5t30.5 -76.5z" />
    <glyph glyph-name="egrave" unicode="&#xe8;" horiz-adv-x="576" 
d="M211 205q0 -66 43.5 -100t111.5 -34q29 0 58 6t54.5 17.5t46.5 28t33 37.5q3 -9 4 -18t1 -18q0 -44 -21 -73t-56.5 -46t-83 -24.5t-99.5 -7.5q-59 0 -111.5 16.5t-92.5 48.5t-63.5 79.5t-23.5 110.5q0 58 23 106.5t61.5 82.5t89.5 53t107 19q60 0 109 -21.5t84.5 -60
t55 -90.5t20.5 -112h-351zM405 287q0 46 -24 78t-72 32q-47 0 -72 -32.5t-25 -77.5h193zM271 513l-150 170h197l50 -170h-97z" />
    <glyph glyph-name="eacute" unicode="&#xe9;" horiz-adv-x="576" 
d="M211 205q0 -66 43.5 -100t111.5 -34q29 0 58 6t54.5 17.5t46.5 28t33 37.5q3 -9 4 -18t1 -18q0 -44 -21 -73t-56.5 -46t-83 -24.5t-99.5 -7.5q-59 0 -111.5 16.5t-92.5 48.5t-63.5 79.5t-23.5 110.5q0 58 23 106.5t61.5 82.5t89.5 53t107 19q60 0 109 -21.5t84.5 -60
t55 -90.5t20.5 -112h-351zM405 287q0 46 -24 78t-72 32q-47 0 -72 -32.5t-25 -77.5h193zM306 506h-97l50 171h197z" />
    <glyph glyph-name="ecircumflex" unicode="&#xea;" horiz-adv-x="576" 
d="M211 205q0 -66 43.5 -100t111.5 -34q29 0 58 6t54.5 17.5t46.5 28t33 37.5q3 -9 4 -18t1 -18q0 -44 -21 -73t-56.5 -46t-83 -24.5t-99.5 -7.5q-59 0 -111.5 16.5t-92.5 48.5t-63.5 79.5t-23.5 110.5q0 58 23 106.5t61.5 82.5t89.5 53t107 19q60 0 109 -21.5t84.5 -60
t55 -90.5t20.5 -112h-351zM405 287q0 46 -24 78t-72 32q-47 0 -72 -32.5t-25 -77.5h193zM314 505l-34 96l-33 -96h-119l107 171h154l113 -171h-188z" />
    <glyph glyph-name="edieresis" unicode="&#xeb;" horiz-adv-x="576" 
d="M211 205q0 -66 43.5 -100t111.5 -34q29 0 58 6t54.5 17.5t46.5 28t33 37.5q3 -9 4 -18t1 -18q0 -44 -21 -73t-56.5 -46t-83 -24.5t-99.5 -7.5q-59 0 -111.5 16.5t-92.5 48.5t-63.5 79.5t-23.5 110.5q0 58 23 106.5t61.5 82.5t89.5 53t107 19q60 0 109 -21.5t84.5 -60
t55 -90.5t20.5 -112h-351zM405 287q0 46 -24 78t-72 32q-47 0 -72 -32.5t-25 -77.5h193zM290 551q0 -21 -15 -36t-36 -15q-22 0 -37 14.5t-15 36.5t15 36.5t37 14.5q21 0 36 -15t15 -36zM413 551q0 -21 -15 -36t-36 -15q-22 0 -37 14.5t-15 36.5t15 36.5t37 14.5
q21 0 36 -15t15 -36z" />
    <glyph glyph-name="igrave" unicode="&#xec;" horiz-adv-x="469" 
d="M27 0l123 120v224l-138 134h325v-358l120 -120h-430zM203 496l-150 170h197l50 -170h-97z" />
    <glyph glyph-name="iacute" unicode="&#xed;" horiz-adv-x="469" 
d="M27 0l123 120v224l-138 134h325v-358l120 -120h-430zM263 496h-97l50 171h197z" />
    <glyph glyph-name="icircumflex" unicode="&#xee;" horiz-adv-x="469" 
d="M27 0l123 120v224l-138 134h325v-358l120 -120h-430zM233 496l-34 96l-33 -96h-119l107 171h154l113 -171h-188z" />
    <glyph glyph-name="idieresis" unicode="&#xef;" horiz-adv-x="469" 
d="M27 0l123 120v224l-138 134h325v-358l120 -120h-430zM224 547q0 -21 -15 -36t-36 -15q-22 0 -37 14.5t-15 36.5t15 36.5t37 14.5q21 0 36 -15t15 -36zM347 547q0 -21 -15 -36t-36 -15q-22 0 -37 14.5t-15 36.5t15 36.5t37 14.5q21 0 36 -15t15 -36z" />
    <glyph glyph-name="ntilde" unicode="&#xf1;" horiz-adv-x="830" 
d="M433 0l76 101v186q0 31 -21.5 52t-52.5 21q-21 0 -37 -10.5t-27.5 -26.5t-19 -35t-13.5 -36q0 -1 -0.5 -1.5t-0.5 -1.5v-149l79 -100h-389l123 120v224l-138 134h325v-119q29 61 68.5 95.5t110.5 34.5q31 0 63 -8.5t57.5 -26t42 -44t16.5 -61.5v-226l123 -123h-385z
M611 682q-3 -30 -11 -60t-23.5 -55t-40.5 -40.5t-61 -15.5q-26 0 -51.5 11t-50.5 24.5t-48.5 24.5t-45.5 11q-17 0 -25 -5t-11.5 -13.5t-5 -18t-5.5 -18.5h-26q0 26 9.5 55.5t27.5 54t43.5 41t58.5 16.5q24 0 46.5 -11.5t44 -25t43 -24.5t45.5 -11q29 0 41.5 18.5t19.5 41.5
h26z" />
    <glyph glyph-name="ograve" unicode="&#xf2;" horiz-adv-x="643" 
d="M631 233q0 -61 -27.5 -109.5t-71.5 -82t-99.5 -51t-111.5 -17.5t-111 17.5t-99 51t-71.5 82t-27.5 109.5t27.5 109.5t71.5 82t99 51.5t111 18t111.5 -18t99.5 -51.5t71.5 -82t27.5 -109.5zM429 234q0 28 -5.5 57t-18.5 53t-34 39t-51 15t-51 -15t-34 -38.5t-19 -52.5
t-6 -58q0 -30 5.5 -59t18.5 -52.5t34 -38t52 -14.5t52 15t33.5 38.5t18 52.5t5.5 58zM287 507l-150 170h197l50 -170h-97z" />
    <glyph glyph-name="oacute" unicode="&#xf3;" horiz-adv-x="643" 
d="M631 233q0 -61 -27.5 -109.5t-71.5 -82t-99.5 -51t-111.5 -17.5t-111 17.5t-99 51t-71.5 82t-27.5 109.5t27.5 109.5t71.5 82t99 51.5t111 18t111.5 -18t99.5 -51.5t71.5 -82t27.5 -109.5zM429 234q0 28 -5.5 57t-18.5 53t-34 39t-51 15t-51 -15t-34 -38.5t-19 -52.5
t-6 -58q0 -30 5.5 -59t18.5 -52.5t34 -38t52 -14.5t52 15t33.5 38.5t18 52.5t5.5 58zM358 509h-97l50 171h197z" />
    <glyph glyph-name="ocircumflex" unicode="&#xf4;" horiz-adv-x="643" 
d="M631 233q0 -61 -27.5 -109.5t-71.5 -82t-99.5 -51t-111.5 -17.5t-111 17.5t-99 51t-71.5 82t-27.5 109.5t27.5 109.5t71.5 82t99 51.5t111 18t111.5 -18t99.5 -51.5t71.5 -82t27.5 -109.5zM429 234q0 28 -5.5 57t-18.5 53t-34 39t-51 15t-51 -15t-34 -38.5t-19 -52.5
t-6 -58q0 -30 5.5 -59t18.5 -52.5t34 -38t52 -14.5t52 15t33.5 38.5t18 52.5t5.5 58zM320 512l-34 96l-33 -96h-119l107 171h154l113 -171h-188z" />
    <glyph glyph-name="otilde" unicode="&#xf5;" horiz-adv-x="643" 
d="M631 233q0 -61 -27.5 -109.5t-71.5 -82t-99.5 -51t-111.5 -17.5t-111 17.5t-99 51t-71.5 82t-27.5 109.5t27.5 109.5t71.5 82t99 51.5t111 18t111.5 -18t99.5 -51.5t71.5 -82t27.5 -109.5zM429 234q0 28 -5.5 57t-18.5 53t-34 39t-51 15t-51 -15t-34 -38.5t-19 -52.5
t-6 -58q0 -30 5.5 -59t18.5 -52.5t34 -38t52 -14.5t52 15t33.5 38.5t18 52.5t5.5 58zM523 678q-3 -30 -11 -60t-23.5 -55t-40.5 -40.5t-61 -15.5q-26 0 -51.5 11t-50.5 24.5t-48.5 24.5t-45.5 11q-17 0 -25 -5t-11.5 -13.5t-5 -18t-5.5 -18.5h-26q0 26 9.5 55.5t27.5 54
t43.5 41t58.5 16.5q24 0 46.5 -11.5t44 -25t43 -24.5t45.5 -11q29 0 41.5 18.5t19.5 41.5h26z" />
    <glyph glyph-name="odieresis" unicode="&#xf6;" horiz-adv-x="643" 
d="M631 233q0 -61 -27.5 -109.5t-71.5 -82t-99.5 -51t-111.5 -17.5t-111 17.5t-99 51t-71.5 82t-27.5 109.5t27.5 109.5t71.5 82t99 51.5t111 18t111.5 -18t99.5 -51.5t71.5 -82t27.5 -109.5zM429 234q0 28 -5.5 57t-18.5 53t-34 39t-51 15t-51 -15t-34 -38.5t-19 -52.5
t-6 -58q0 -30 5.5 -59t18.5 -52.5t34 -38t52 -14.5t52 15t33.5 38.5t18 52.5t5.5 58zM311 564q0 -21 -15 -36t-36 -15q-22 0 -37 14.5t-15 36.5t15 36.5t37 14.5q21 0 36 -15t15 -36zM434 564q0 -21 -15 -36t-36 -15q-22 0 -37 14.5t-15 36.5t15 36.5t37 14.5q21 0 36 -15
t15 -36z" />
    <glyph glyph-name="scaron" unicode="&#x161;" horiz-adv-x="584" 
d="M572 141q0 -45 -21 -77t-54 -52.5t-73.5 -29.5t-79.5 -9q-26 0 -56 3.5t-59.5 10.5t-58 17t-51.5 22l-94 -51v243q29 -39 67.5 -69.5t83.5 -51.5t93.5 -31.5t96.5 -10.5q6 0 16 1.5t19 5t16 9.5t7 14q0 16 -15 21t-28 8q-23 5 -49 6t-50 3q-29 3 -60 8.5t-61 15t-57.5 24
t-49.5 34.5q-25 23 -33.5 56.5t-8.5 66.5q0 42 17.5 73t46 52t65 31t74.5 10q51 0 104.5 -9.5t98.5 -34.5l89 40v-199q-59 62 -126.5 85.5t-151.5 23.5q-8 0 -21.5 -1t-26.5 -4t-22.5 -9t-9.5 -16q0 -9 4.5 -15t11.5 -9t15 -4t15 -1q32 -2 72.5 -5t82.5 -10.5t82 -20t71 -34
t50 -53.5t19 -77zM367 509h-154l-113 170h188l34 -95l33 95h119z" />
    <glyph glyph-name="ugrave" unicode="&#xf9;" horiz-adv-x="830" 
d="M493 0v103q-29 -62 -68.5 -95t-109.5 -33q-31 0 -62.5 8.5t-57.5 25.5t-42.5 43.5t-16.5 61.5v241l-124 123h309v-302q0 -31 22 -52t53 -21q40 0 62 34q3 4 9 15t11.5 23.5l10 23t4.5 15.5v141l-134 123h322v-344l137 -134h-325zM378 496l-150 170h197l50 -170h-97z" />
    <glyph glyph-name="uacute" unicode="&#xfa;" horiz-adv-x="830" 
d="M493 0v103q-29 -62 -68.5 -95t-109.5 -33q-31 0 -62.5 8.5t-57.5 25.5t-42.5 43.5t-16.5 61.5v241l-124 123h309v-302q0 -31 22 -52t53 -21q40 0 62 34q3 4 9 15t11.5 23.5l10 23t4.5 15.5v141l-134 123h322v-344l137 -134h-325zM430 496h-97l50 171h197z" />
    <glyph glyph-name="ucircumflex" unicode="&#xfb;" horiz-adv-x="830" 
d="M493 0v103q-29 -62 -68.5 -95t-109.5 -33q-31 0 -62.5 8.5t-57.5 25.5t-42.5 43.5t-16.5 61.5v241l-124 123h309v-302q0 -31 22 -52t53 -21q40 0 62 34q3 4 9 15t11.5 23.5l10 23t4.5 15.5v141l-134 123h322v-344l137 -134h-325zM414 496l-34 96l-33 -96h-119l107 171
h154l113 -171h-188z" />
    <glyph glyph-name="udieresis" unicode="&#xfc;" horiz-adv-x="830" 
d="M493 0v103q-29 -62 -68.5 -95t-109.5 -33q-31 0 -62.5 8.5t-57.5 25.5t-42.5 43.5t-16.5 61.5v241l-124 123h309v-302q0 -31 22 -52t53 -21q40 0 62 34q3 4 9 15t11.5 23.5l10 23t4.5 15.5v141l-134 123h322v-344l137 -134h-325zM405 547q0 -21 -15 -36t-36 -15
q-22 0 -37 14.5t-15 36.5t15 36.5t37 14.5q21 0 36 -15t15 -36zM528 547q0 -21 -15 -36t-36 -15q-22 0 -37 14.5t-15 36.5t15 36.5t37 14.5q21 0 36 -15t15 -36z" />
    <glyph glyph-name="yacute" unicode="&#xfd;" horiz-adv-x="820" 
d="M687 358l-153 -411q-15 -40 -34 -72t-45.5 -54t-60.5 -33.5t-79 -11.5q-24 0 -54.5 6t-57.5 19.5t-45.5 35t-18.5 52.5q0 26 12 45.5t31 33t42.5 20.5t46.5 7q22 0 45 -6q-2 -3 -4 -11t-3.5 -17t-2.5 -17.5t-1 -12.5q0 -9 1 -19t5 -18.5t10.5 -14.5t17.5 -6q14 0 25 11
t19 27t12.5 33t6.5 28l-240 386l-10.5 8.5l-26.5 21.5l-34.5 27.5l-35 28l-28.5 23t-15 11.5h444l-79 -106l112 -191l71 184l-87 113h335zM438 496h-97l50 171h197z" />
    <glyph glyph-name="ydieresis" unicode="&#xff;" horiz-adv-x="820" 
d="M687 358l-153 -411q-15 -40 -34 -72t-45.5 -54t-60.5 -33.5t-79 -11.5q-24 0 -54.5 6t-57.5 19.5t-45.5 35t-18.5 52.5q0 26 12 45.5t31 33t42.5 20.5t46.5 7q22 0 45 -6q-2 -3 -4 -11t-3.5 -17t-2.5 -17.5t-1 -12.5q0 -9 1 -19t5 -18.5t10.5 -14.5t17.5 -6q14 0 25 11
t19 27t12.5 33t6.5 28l-240 386l-10.5 8.5l-26.5 21.5l-34.5 27.5l-35 28l-28.5 23t-15 11.5h444l-79 -106l112 -191l71 184l-87 113h335zM445 547q0 -21 -15 -36t-36 -15q-22 0 -37 14.5t-15 36.5t15 36.5t37 14.5q21 0 36 -15t15 -36zM568 547q0 -21 -15 -36t-36 -15
q-22 0 -37 14.5t-15 36.5t15 36.5t37 14.5q21 0 36 -15t15 -36z" />
    <glyph glyph-name="zcaron" unicode="&#x17e;" horiz-adv-x="619" 
d="M331 96h149l111 154v-250h-579l284 390h-129l-114 -156v244h554zM389 496h-154l-113 170h188l34 -95l33 95h119z" />
    <glyph glyph-name="space" unicode=" " horiz-adv-x="250" 
 />
    </font>
</defs>
</svg>
